<?xml version="1.0" encoding="UTF-8"?>
<svg id="_レイヤー_2" data-name="レイヤー 2" xmlns="http://www.w3.org/2000/svg" viewBox="0 0 1212.48 1212.48">
  <defs>
    <style>
      .cls-1 {
        fill: #323232;
      }

      .cls-2 {
        fill: #e6e6e6;
      }

      .cls-3 {
        fill: #fff;
      }

      .cls-4 {
        fill: #ffdc00;
      }
    </style>
  </defs>
  <g id="_レイヤー" data-name="レイヤー">
    <g>
      <path class="cls-2" d="M1212.48,606.24c0,208.79-105.55,392.93-266.2,501.96-3.29,2.24-6.6,4.45-9.94,6.61-3.27,2.13-6.56,4.23-9.88,6.3-92.92,57.91-202.66,91.37-320.22,91.37s-225.47-32.9-317.89-89.94c-3.33-2.05-6.64-4.13-9.92-6.25-3.33-2.14-6.62-4.31-9.9-6.51C106.57,1000.94,0,816.04,0,606.24,0,271.42,271.43,0,606.24,0s606.24,271.42,606.24,606.24Z"/>
      <g>
        <path class="cls-1" d="M478.21,432.97c-67.83,57.94-85.92,107.28-91.32,185.04h-.15c-2.35-14.19-14.23-27.03-29.06-26.39-1.85.08-3.61.29-5.29.61-2.87-26.56-17.6-52.99-21.97-79.35-3.05-18.44-2.5-39.4,4.8-56.91-13.58-1.19-22.89-9.25-23.67-11.41,63.18-31.14,48.56-104.79,104.04-139.9,10.21-6.47,27.63-12.82,45.41-9.97,16.67-47.61,74.64-69.36,117.47-74.2,42.67-4.82,115.5,17.46,169.19,17.75-1.24,8.39-38.91,10.68-48.25,15.11,177.68,27.97,103.24,111.41,205.53,155.58-5.47,6.15-14.88,12.15-28.79,12.05v1c13.19,25.02,11.9,61.84,7.08,90.9-4.37,26.35-21.49,52.27-24.42,78.81-.4-.03-.81-.05-1.21-.07-14.83-.64-26.71,12.2-29.06,26.39-17.21-132.19-104.75-108.95-204.87-175.7.45,22.15,20,56.73,33.98,78.34-72.46-.18-151.38-21.55-179.47-87.68Z"/>
        <path class="cls-4" d="M288.35,1122.54c-3.33-2.05-6.64-4.13-9.92-6.25,4.57-23.46,9.8-46.88,15.81-68.69,16.86-44.38,30.51-56.2,66.42-79.49,13.42-8.7,42.42-18.89,70.2-28.29,3.47-1.18,6.92-2.34,10.32-3.48,3.88,2.71,7.77,5.29,11.65,7.75,50.54,32.02,101.16,43.33,150.68,43.99,66.1.88,112.54-17.37,153.71-45.69,3.73-2.57,7.42-5.22,11.08-7.95,3.38,1.14,6.82,2.31,10.31,3.48,29.39,9.92,61.47,20.91,75.8,30.19,35.91,23.29,49.56,35.11,66.41,79.49,5.88,21.35,11.02,44.24,15.52,67.21-3.27,2.13-6.56,4.23-9.88,6.3-92.92,57.91-202.66,91.37-320.22,91.37s-225.47-32.9-317.89-89.94Z"/>
        <path class="cls-3" d="M405.58,744.57c-2.72-.95-9.17-2.71-9.17-2.71-22.56-7.45-42.46-23.33-55.2-44.05-12.73-20.73-18.2-46.16-15.19-70.54,2.13-17.16,10.06-31.81,26.37-35.04,1.67-.33,3.43-.53,5.29-.61,14.83-.64,26.71,12.2,29.06,26.39h.15c5.39-77.76,23.49-127.1,91.32-185.04,28.1,66.13,107.01,87.5,179.47,87.68-13.98-21.61-33.53-56.19-33.98-78.34,100.11,66.75,187.66,43.51,204.87,175.7,2.35-14.19,14.23-27.03,29.06-26.39.4.02.81.04,1.21.07,19.09,1.44,28.15,17.04,30.44,35.58,3.02,24.39-2.45,49.81-15.18,70.54-12.74,20.72-32.63,36.6-55.2,44.05,0,0-6.42,1.76-9.16,2.71-6.65,19.3-15.2,37.59-26.32,54.38-20.95,31.69-49.65,55.08-81.77,70.25-29.56,13.97-62.02,20.95-93.98,21.02-32.11-.06-64.72-7.11-94.41-21.22-31.94-15.17-60.49-38.49-81.34-70.04-11.11-16.8-19.66-35.09-26.32-54.39h-.04Z"/>
        <path class="cls-3" d="M727.23,919.36c9.04,4.14,24.15,9.37,41.07,15.08-43.98,32.79-92.68,54.59-164.78,53.64-53.33-.71-107.92-13.77-162.34-51.74,19.14-6.45,36.64-12.38,46.66-16.98,26.06-11.97,25.09-23.87,25.44-50.36,29.69,14.11,62.3,21.15,94.41,21.22,31.95-.06,64.42-7.05,93.98-21.02.35,26.24-.38,38.25,25.56,50.16Z"/>
        <path class="cls-1" d="M502.28,869c-.07,5.42-.05,10.86-.39,16.28-.07,1.07-.16,2.14-.25,3.2-.21,2.24.35-1.21-.22,1.54-.41,1.99-.87,3.92-1.52,5.84-.9,2.68,1.06-1.8-.3.65-.44.79-.88,1.56-1.35,2.33-.99,1.65,1.02-.83-.82,1.09-.81.84-1.59,1.68-2.45,2.46-2.53,2.27-8.07,5.31-12.69,7.47-5.38,2.52-6.75,10.26-3.95,15.05,3.23,5.51,9.65,6.47,15.05,3.95,11.71-5.48,22.17-13.14,27.07-25.48,4.27-10.74,3.67-23.02,3.81-34.38.18-14.16-21.82-14.17-22,0h0Z"/>
        <path class="cls-1" d="M503.11,597.07c7.69-.33,15.32-.08,23.01.04,13.45.21,13.46-20.69,0-20.9-7.69-.12-15.32-.37-23.01-.04-5.64.24-10.45,4.63-10.45,10.45,0,5.47,4.78,10.69,10.45,10.45h0Z"/>
        <path class="cls-1" d="M712.64,576.12c-7.69-.29-15.32,0-23.02.15-13.43.27-13.48,21.17,0,20.9,7.69-.15,15.32-.44,23.02-.15,13.45.51,13.43-20.39,0-20.9h0Z"/>
        <path class="cls-1" d="M534.6,629.08c-10.19-13.59-26.06-10.33-33.65.9-8.58,12.49-7.46,34.64,1.12,47.01,2.93,4.02,7.07,6.49,11.86,7.32,18.9,3.27,26.71-13.7,26.62-27.68-.05-8.5-.64-20.47-5.96-27.56Z"/>
        <path class="cls-1" d="M717.06,629.08c-10.19-13.59-26.06-10.33-33.65.9-8.58,12.49-7.46,34.64,1.12,47.01,2.93,4.02,7.07,6.49,11.86,7.32,18.9,3.26,26.71-13.7,26.62-27.68-.05-8.5-.64-20.47-5.96-27.56Z"/>
        <ellipse class="cls-1" cx="609.77" cy="720.88" rx="14.28" ry="9.63"/>
        <path class="cls-1" d="M569.24,775.94c23.24,18.18,57.77,19.2,81.59,1.17,4.49-3.4,6.84-9.01,3.75-14.3-2.59-4.42-9.77-7.18-14.3-3.75-15.63,11.83-40.04,14.79-56.26,2.1-4.44-3.47-10.45-4.33-14.78,0-3.62,3.62-4.47,11.28,0,14.78h0Z"/>
        <path class="cls-1" d="M867.23,581.94c-23.12-5.67-44.94,10.14-49.26,33.14-1.1,5.83,1.62,11.87,7.68,13.53,5.36,1.47,12.43-1.81,13.53-7.68,2.26-12.01,11.29-20.71,22.82-17.61,4.76,1.28,8.15,3.95,10.62,7.8,3.22,5.02,4.67,10,5.68,16.39,4.91,31.18-8.08,65.36-32.27,86.51-5.84,5.11-12.44,9.36-19.38,12.83,1.13-4.11,2.19-8.25,3.17-12.4,3.26-13.77-17.95-19.64-21.21-5.85-9.36,39.57-25.06,78.19-53.19,108.24-24.37,26.04-55.8,44.53-90.04,54.26-67.3,19.13-143.85,3.54-195.66-44.56-33.82-31.4-52.45-73.65-62.92-117.94-3.26-13.77-24.48-7.94-21.21,5.85.99,4.18,2.05,8.35,3.19,12.49-5.26-2.6-10.32-5.76-14.96-9.25-12.45-9.36-22.09-21.88-28.7-35.91-7.19-15.24-9.81-32.67-8.56-49.4.41-5.45,1.76-12.6,3.83-17.02,2.54-5.43,4.9-8.29,9.34-10.69,1.63-.88,5.56-1.98,7.99-2.05,3.09-.09,5.62.48,8.24,2.02,5.85,3.43,8.95,9.59,10.21,16.28,1.1,5.84,8.14,9.16,13.53,7.68,6.13-1.68,8.78-7.67,7.68-13.53-3.6-19.14-20.8-35.92-41.07-34.37-19.07,1.46-32.57,14.23-38.34,32.01-6.19,19.09-4.52,41.69.82,60.75,5.61,19.99,16.48,38.55,31.51,52.92,8.17,7.81,17.56,14.61,27.69,19.65,6.28,3.12,12.72,5.21,19.25,7.34,10.7,29.01,25.86,56.2,47.21,79.01,26.85,28.7,62.04,49.21,99.75,59.92,74.76,21.23,159.03,3.27,216.51-49.7,26.67-24.58,45.04-55.67,57.46-89.22,5.3-1.7,10.53-3.36,15.71-5.69,9.19-4.13,17.57-9.7,25.34-16.1,16.15-13.29,28.03-31.18,35.04-50.8,10.86-30.41,13.88-88.83-27-98.86Z"/>
        <path class="cls-1" d="M690.67,868.84c.15,11.39-.42,23.69,3.88,34.46,4.93,12.36,15.38,20.06,27.13,25.56,5.38,2.52,11.86,1.51,15.05-3.95,2.79-4.77,1.46-12.52-3.95-15.05-4.74-2.22-10.03-5.09-12.71-7.5-.75-.67-1.43-1.39-2.14-2.11-.43-.47-.85-.95-1.25-1.45.68.88.79,1,.35.36-.56-.9-1.09-1.79-1.61-2.72-1.12-2,.47,1.72-.32-.67-.58-1.78-1.04-3.56-1.45-5.39-.12-.64-.23-1.28-.33-1.93.14,1.09.17,1.23.07.41-.13-1.24-.24-2.48-.32-3.73-.35-5.42-.33-10.87-.4-16.3-.18-14.15-22.18-14.18-22,0h0Z"/>
        <path class="cls-1" d="M762.81,924.91c-31.8,23.62-66.57,40.88-105.7,48.08-44.24,8.15-91.8,5-134.7-8.41-27.12-8.47-52.37-21.58-75.69-37.74-4.88-3.39-12.22-.9-15.05,3.95-3.2,5.47-.95,11.66,3.95,15.05,42.82,29.69,91.91,47.51,143.81,52.05,46.34,4.05,93.52-1.48,136.42-19.87,20.74-8.89,39.97-20.68,58.06-34.11,4.76-3.54,7.18-9.52,3.95-15.05-2.75-4.7-10.25-7.51-15.05-3.95h0Z"/>
        <path class="cls-1" d="M910.52,399.43c-8.91-3.88-17.52-8.44-25.45-14.08-.81-.57-1.6-1.16-2.39-1.75-.31-.24-.62-.49-.93-.74-1.6-1.32-3.18-2.66-4.7-4.06-2.78-2.55-5.42-5.26-7.9-8.11-1.02-1.17-1.98-2.38-2.96-3.58-.14-.18-.28-.36-.41-.55-.56-.78-1.14-1.56-1.69-2.35-1.97-2.8-3.8-5.69-5.54-8.64-3.38-5.74-6.37-11.7-9.29-17.69-5.88-12.01-11.68-24.09-19.78-34.81-10.77-14.25-24.32-25.7-40.07-34.17-13.09-7.04-27.03-12.3-41.34-16.41,4.93-2.4,9.01-5.91,10.23-11.35,1.57-6.97-3.2-13.86-10.61-13.92-46.86-.42-92.43-13.87-138.98-17.68-39.11-3.2-81,6.66-113.96,28.27-17.55,11.51-31.98,26.63-40.82,45.45-32.69-.54-60.89,19.3-77.98,47.11-14.96,24.35-20.56,50.36-35.79,74.12-8.3,12.95-19.64,23.27-34.15,30.55-5.75,2.88-6.19,9.89-3.95,15.05,1.65,3.79,6.2,6.91,9.47,9.08,2.91,1.92,6.15,3.54,9.51,4.78-4.92,18.75-4.17,39.16-.05,57.88,5.12,23.25,16.15,44.8,20.14,68.36.99,5.86,8.22,9.14,13.53,7.68,6.21-1.71,8.68-7.65,7.68-13.53-3.79-22.39-13.9-42.96-19.33-64.9-4.26-17.23-4.82-35.66.14-52.73,13.76-1.4,26.28-8.37,36.77-18.27,10.32-9.74-5.26-25.27-15.56-15.56-5.34,5.03-11.34,9.35-18.5,11.27-3.15.84-3.74.94-6.92.97-.45,0-.89,0-1.34-.02-1.08-.24-2.12-.32-3.1-.24-.46-.08-.92-.17-1.38-.27-.21-.05-.42-.1-.63-.15,18.04-13.71,30.42-32.85,39.73-54.06,10.38-23.64,18.71-49.77,37.89-67.72,12.18-11.4,30.22-19.91,47.97-17.39,3.34.92,6.47.2,8.96-1.55,2.13-1.28,3.79-3.29,4.57-6.13,12.3-34.19,49.43-53.1,83.48-61.7,4.25-1.07,8.53-2.01,12.83-2.8,2.18-.4,4.36-.77,6.55-1.1,2.75-.41,1.92-.32,5.14-.64,8.97-.9,18.04-.63,27.02.03,21.66,1.61,43.08,5.62,64.47,9.16,7.39,1.22,14.8,2.45,22.24,3.58-2.17,1.18-3.61,3.27-4.32,5.65-.07.21-.15.42-.21.65-.37,1.34-.43,2.81-.22,4.28.17,1.51.61,2.96,1.33,4.2.11.19.23.36.35.54,1.39,2.3,3.52,4.09,6.22,4.52,15.33,2.44,30.57,5.48,45.5,9.76,11.4,3.27,21.62,6.89,31.18,11.57,4.23,2.07,8.38,4.33,12.38,6.82,1.84,1.14,3.65,2.34,5.43,3.58.85.6,1.7,1.21,2.54,1.83.3.22.6.45.89.67.08.07.18.15.32.26,5.86,4.8,11.04,10.1,15.87,15.93.07.09.12.15.18.22.04.05.07.11.12.18.49.69,1.01,1.36,1.5,2.05,1.04,1.46,2.04,2.94,3.02,4.45,1.84,2.85,3.56,5.77,5.21,8.73,3.16,5.71,6,11.59,8.87,17.45,6.25,12.8,12.9,25.11,21.92,36.21,8.51,10.47,19.08,19,30.64,25.89-.39.08-.77.15-1.16.22-.56.06-1.13.1-1.69.13-1.41.03-2.81.1-4.22.05-2.62-.08-4-.25-6.39-.74-6.9-1.42-13.3-3.97-19.54-7.18-5.28-2.72-11.94-1.37-15.05,3.95-2.88,4.93-1.35,12.32,3.95,15.05,9.31,4.79,19.83,8.53,30.38,9.96,9.39,21.08,8.36,46.58,5.77,68.9-1.52,13.19-4.96,25.62-9.71,38.01-5.25,13.7-11.24,27.16-14.57,41.5-3.2,13.78,18,19.66,21.21,5.85,3.54-15.23,10.09-29.44,15.53-44.03,5.23-14.01,8.08-28.06,9.71-42.9,2.47-22.58,2.36-46.7-4.96-68.46,7.88-2.13,15.22-6.3,21.44-13.15,4.25-4.68,4.64-14.29-2.23-17.28ZM322.32,439.96s-.03-.02-.06-.04c.03.02.05.04.07.05,0,0,0,0-.01,0ZM321.1,439.11s0,0,0,0c.05.04.11.07.16.11,0,0,0,0,0,0-.05-.04-.1-.07-.16-.11ZM320.95,439s.06.04.09.06h0s-.06-.04-.09-.06ZM321.19,439.06c-.35-.35-1.09-1.1-1.08-1.11.4-.27.85.55,1.08,1.11ZM738.66,232.6c2.3-2.63.65.09,0,0h0Z"/>
        <path class="cls-1" d="M839.57,618c-5.33-40.07-18.29-79.64-51.18-105.43-28.15-22.07-63.15-32.5-95.68-46.24-8.55-3.61-20.63-9.14-30.24-14.08-11.42-5.87-22.51-12.35-33.21-19.45-6.9-4.58-16.83,1.43-16.55,9.5.52,15.27,6.38,29.84,12.75,43.52,3.69,7.93,7.82,15.66,12.21,23.24-24.45-1.38-48.11-5.34-71.81-13.64-26.3-9.21-52.13-25.45-67.57-48.46-10.1-15.04-15.57-30.88-18.37-49.05-.91-5.88-8.28-9.13-13.53-7.68-6.27,1.72-8.59,7.64-7.68,13.53,1.37,8.9,3.59,17.58,6.6,25.93-21.19,18.73-40.72,39.63-55.48,63.86-13.83,22.7-22.8,48.03-27.76,74.09-3.16,16.63-4.98,33.51-6.17,50.38-.42,5.93,5.36,11,11,11,6.3,0,10.58-5.05,11-11,1.84-26.12,5.21-51.63,13.73-76.75,7.74-22.84,20.8-44.93,36.99-63.77,8.18-9.53,17.05-18.43,26.3-26.91,8.32,14.62,19.41,27.64,32.98,38.25,26.42,20.65,58.75,32.2,91.56,37.85,19.23,3.31,38.71,4.9,58.22,4.98,8.07.03,14.07-9.47,9.5-16.55-7.81-12.11-15.13-24.57-21.39-37.56-1.96-4.06-3.77-8.17-5.38-12.37,27.63,15.14,57,26.42,86.27,38.47.99.41,1.97.81,2.95,1.22.21.09.38.16.52.22.07.03.15.06.25.11,1.76.75,3.52,1.51,5.27,2.28,4.04,1.78,8.05,3.64,12,5.6,6.74,3.34,13.32,7,19.59,11.17,11.49,7.65,22.68,18.7,30.19,30.91,5.72,9.3,8.94,16.81,12.13,26.72,3.78,11.73,6.38,23.91,8,36.12.78,5.89,4.5,11,11,11,5.34,0,11.79-5.07,11-11Z"/>
        <path class="cls-1" d="M493.39,928.86c-.24.11-.47.21-.71.31-3.67,1.66-7.39,3.19-11.15,4.64-5.03,1.95-10.09,3.81-15.17,5.61-4.49,1.6-9.01,3.14-13.53,4.67-4.42,1.49-8.84,2.96-13.27,4.44-5.6,1.86-11.2,3.73-16.77,5.65-10.39,3.57-20.75,7.23-30.98,11.24-5.11,2.01-6.85,2.69-11.39,4.75-3.69,1.66-7.36,3.42-10.88,5.43-8.87,5.05-17.45,11.11-25.56,17.31-.26.19-.7.54-1.84,1.46-.87.71-1.73,1.42-2.58,2.14-1.65,1.4-3.27,2.85-4.85,4.34-3.34,3.17-6.47,6.55-9.36,10.13-.14.17-.3.39-.42.54-.01.02-.03.03-.04.05-.02.03-.04.05-.06.08-.23.32-.47.64-.7.97-.64.9-1.28,1.79-1.9,2.71-1.29,1.89-2.51,3.82-3.67,5.79-2.81,4.72-5.3,9.62-7.59,14.61-5.71,12.42-9.04,25.29-12.23,38.55-3.85,16-7.28,32.1-10.39,48.26-3.33-2.05-6.64-4.13-9.92-6.25-3.33-2.14-6.62-4.31-9.9-6.51,1.58-7.97,3.23-15.94,4.98-23.88,3.22-14.63,5.84-30.28,11.3-44.27,8.03-20.58,17.79-40.5,33.96-55.96,7.71-7.37,16.42-13.71,25.22-19.7,7.73-5.26,15.43-10.24,23.93-14.16,19.95-9.2,40.94-16.15,61.74-23.18,10.39-3.51,20.81-6.97,31.16-10.6,4.38-1.53,8.74-3.09,13.08-4.74,1.99-.76,3.97-1.57,5.96-2.35.04-.02.08-.03.11-.04,0,0,.02-.01.03-.01.04-.02.08-.03.09-.04.05-.02.1-.05.15-.07.68-.31,1.37-.61,2.05-.92,5.43-2.47,11.8-1.61,15.05,3.95.06.11.12.22.18.33,2.54,4.77,1.16,12.32-4.13,14.72Z"/>
        <path class="cls-1" d="M880.35,1000.85c-7.43-7.04-13.78-11.46-22.59-17.38-7.48-5.01-14.9-9.59-23.11-13.3-4.55-2.06-6.28-2.75-11.39-4.75-5.08-1.99-10.19-3.89-15.32-5.74-10.67-3.85-21.42-7.49-32.17-11.11-1.88-.63-3.76-1.26-5.65-1.89-4.29-1.43-8.6-2.85-12.9-4.29-4.4-1.48-8.8-2.98-13.16-4.56-7.58-2.72-15.08-5.64-22.39-8.97-5.31-2.41-6.65-9.98-4.11-14.72.05-.11.11-.22.17-.33,3.21-5.49,9.64-6.4,15.05-3.95.8.37,1.6.71,2.41,1.07,0,0,0,0,0,.01.01,0,.02,0,.03.01,0,.01.02.01.03.01.1.04.21.09.34.14,1.86.74,3.71,1.48,5.57,2.19,9.55,3.63,19.2,6.97,28.88,10.24.96.32,1.92.64,2.89.97.02,0,.03.01.05.02,9.44,3.16,18.91,6.28,28.31,9.54,18.96,6.57,39.02,12.9,56.38,23.15,17.35,10.26,35.27,22.76,47.92,38.63,15.67,19.66,24.7,43.25,30.68,67.42,3.69,14.9,6.99,29.89,10,44.94-3.29,2.24-6.6,4.45-9.94,6.61-3.27,2.13-6.56,4.23-9.88,6.3-4.35-23.17-9.25-46.34-15.79-68.92-3.11-10.75-8.46-21.48-14.16-31.07-1.26-2.13-2.59-4.22-3.98-6.25-.62-.91-1.27-1.8-1.91-2.69-.29-.39-.41-.57-.45-.64-.07-.08-.2-.25-.46-.56-2.88-3.58-6.01-6.96-9.36-10.13Z"/>
      </g>
    </g>
  </g>
</svg>