<?xml version="1.0" encoding="UTF-8"?>
<svg id="_レイヤー_2" data-name="レイヤー 2" xmlns="http://www.w3.org/2000/svg" viewBox="0 0 471.84 131.1">
  <defs>
    <style>
      .cls-1 {
        fill: #f8b62d;
      }
    </style>
  </defs>
  <g id="_レイヤー_1-2" data-name="レイヤー 1">
    <g>
      <path class="cls-1" d="M30.96,18.06v-6.48h21.18v6.48h-21.18ZM32.58,9.06V3h18.6v6.06h-18.6ZM84.96,23.4v13.08h-7.26v-7.08h-17.64v2.52h6.66c0,4.8-.42,8.76-1.26,11.88-.84,3.12-2.09,5.6-3.75,7.44-1.66,1.84-3.93,3.46-6.81,4.86l-3.54-5.58v3.3h-12.12v2.16h-6.66v-18.3h18.78v11.94c2.44-1.28,4.25-2.83,5.43-4.65,1.18-1.82,1.95-4.45,2.31-7.89h-6.24v-13.68h32.1ZM33.06,26.58v-5.88h18v5.88h-18ZM33.06,35.04v-5.82h18v5.82h-18ZM39.24,48.06h6v-4.62h-6v4.62ZM85.74,4.98v6.36h-13.08v3.24h10.8v6.06h-28.62v-6.06h9.9v-3.24h-11.76v-6.36h11.76V.48h7.92v4.5h13.08ZM68.52,31.92h7.44v15.54c0,.6.07.96.21,1.08.14.12.57.18,1.29.18.88,0,1.4-.36,1.56-1.08.16-.72.28-3.2.36-7.44l6.66.9c-.08,2-.14,3.54-.18,4.62-.04,1.08-.13,2.22-.27,3.42-.14,1.2-.27,2.06-.39,2.58-.12.52-.38,1.07-.78,1.65-.4.58-.75.96-1.05,1.14-.3.18-.83.35-1.59.51-.76.16-1.45.25-2.07.27-.62.02-1.55.03-2.79.03-1.44,0-2.56-.02-3.36-.06-.8-.04-1.56-.15-2.28-.33-.72-.18-1.22-.39-1.5-.63-.28-.24-.54-.65-.78-1.23-.24-.58-.38-1.2-.42-1.86-.04-.66-.06-1.57-.06-2.73v-16.56Z"/>
      <path class="cls-1" d="M96.54,11.88v-6.78h24.84v6.78c-.2,2.04-.64,5.62-1.32,10.74,2.88.16,6,.64,9.36,1.44.08-2.6.12-7.32.12-14.16h7.62c0,5.92-.1,11.42-.3,16.5,3.16,1.24,6.3,2.82,9.42,4.74l-3.36,6.48c-2.24-1.48-4.44-2.7-6.6-3.66-.36,3.04-.84,5.59-1.44,7.65-.6,2.06-1.49,3.86-2.67,5.4-1.18,1.54-2.45,2.81-3.81,3.81-1.36,1-3.22,2.16-5.58,3.48l-3.9-6.36c1.92-1.04,3.37-1.91,4.35-2.61.98-.7,1.93-1.66,2.85-2.88.92-1.22,1.58-2.69,1.98-4.41.4-1.72.72-3.96.96-6.72-3.44-1-6.78-1.58-10.02-1.74-.64,3.88-1.32,7.18-2.04,9.9-.72,2.72-1.46,4.91-2.22,6.57-.76,1.66-1.63,2.96-2.61,3.9-.98.94-1.95,1.57-2.91,1.89-.96.32-2.12.48-3.48.48-3.32,0-6.42-1.55-9.3-4.65-2.88-3.1-4.32-6.59-4.32-10.47s1.77-6.92,5.31-9.6c3.54-2.68,8.43-4.32,14.67-4.92.48-3.76.88-7.36,1.2-10.8h-16.8ZM111.12,29.82c-3.64.48-6.41,1.39-8.31,2.73-1.9,1.34-2.85,2.89-2.85,4.65,0,1.64.62,3.27,1.86,4.89,1.24,1.62,2.42,2.43,3.54,2.43,2.2,0,4.12-4.9,5.76-14.7Z"/>
      <path class="cls-1" d="M182.64,28.86h23.1v4.92h-54.36v-4.92h23.1v-1.62h-20.04v-4.2h20.04v-1.62h-18.24v-4.02h18.24v-1.74h-23.64v-5.52h23.64v-1.74h-18.24V3.6h18.24V0h8.16v3.6h18v6.54h5.64v5.52h-5.64v5.76h-18v1.62h20.04v4.2h-20.04v1.62ZM164.34,53.52v2.16h-7.98v-20.28h44.4v20.28h-7.98v-2.16h-28.44ZM192.78,42.36v-2.04h-28.44v2.04h28.44ZM164.34,48.84h28.44v-2.16h-28.44v2.16ZM182.64,8.4v1.74h10.2v-1.74h-10.2ZM182.64,15.66v1.74h10.2v-1.74h-10.2Z"/>
      <path class="cls-1" d="M245.46,31.14l.12-.06c-.72-1.48-1.52-3.26-2.4-5.34-10.36.32-20,.48-28.92.48v-6.42c8.84,0,17.72-.12,26.64-.36-.64-2.24-1.08-3.92-1.32-5.04-6.4.2-13.96.3-22.68.3v-6.36c6.24,0,13.42-.1,21.54-.3-.28-2.2-.44-4.22-.48-6.06l7.62-.42c.08,1.6.28,3.68.6,6.24,3.16-.12,8.12-.34,14.88-.66l.24,6.36c-6.04.32-10.7.54-13.98.66.52,2.16.98,3.84,1.38,5.04,6.24-.24,10.9-.44,13.98-.6l.24,6.42c-5.2.24-9.12.4-11.76.48,1.44,3.12,3.24,6.28,5.4,9.48l-7.62,4.14c-4.92-2.2-9.36-3.3-13.32-3.3-3.44,0-5.9.39-7.38,1.17-1.48.78-2.22,1.95-2.22,3.51,0,2.12,1.1,3.68,3.3,4.68,2.2,1,6.02,1.5,11.46,1.5,4.2,0,8.92-.4,14.16-1.2l.9,6.6c-5.04.8-10.06,1.2-15.06,1.2-15.32,0-22.98-4.26-22.98-12.78,0-3.36,1.5-6.02,4.5-7.98,3-1.96,7.44-2.94,13.32-2.94,3.32,0,6.6.52,9.84,1.56Z"/>
      <path class="cls-1" d="M280.08,53.28v2.4h-7.74V2.28h52.44v53.4h-7.74v-2.4h-36.96ZM293.34,22.68h-11.16v-6.3h12.78v-6.48h7.2v6.48h12.78v6.3h-11.16c3.32,5.4,7.74,10.36,13.26,14.88V8.52h-36.96v29.04c5.52-4.52,9.94-9.48,13.26-14.88ZM294.96,30.36c-3.2,5.08-6.92,9.54-11.16,13.38l-3.72-4.68v8.22h36.96v-8.22l-3.72,4.68c-4.24-3.84-7.96-8.3-11.16-13.38v15.54h-7.2v-15.54Z"/>
      <path class="cls-1" d="M330.96,43.44v-6.06h10.92v-2.22h-10.14v-5.88h10.14v-1.74h-10.02v-14.28h4.08v-2.34h-4.98v-6.12h4.98V.78h6.9v4.02h5.22V.78h6.9v4.02h5.1v6.12h-5.1v2.34h4.08v3.96c2.56-5.52,4.5-11.24,5.82-17.16l6.9,1.08c-.52,2.28-1.12,4.66-1.8,7.14h4.62c.92-2.6,1.72-5.34,2.4-8.22l6.66.9c-.6,2.68-1.28,5.12-2.04,7.32h4.86v6.54h-5.76v6.48h5.04v6h-5.04v6.6h5.04v6h-5.04v6.72h6.24v6.3h-18.3v3.18h-7.5v-31.2l-2.1-.96v3.6h-9.36v1.74h9.48v5.88h-9.48v2.22h10.08v6.06h-8.82c1.88,2.4,4.84,4.34,8.88,5.82l-2.94,6.12c-4.2-1.52-7.76-4.32-10.68-8.4-3.16,4.4-7.28,7.4-12.36,9l-3.36-6.18c5.04-1.68,8.34-3.8,9.9-6.36h-9.42ZM342.24,18.12h-3.72v4.5h3.72v-4.5ZM342.84,13.26h5.22v-2.34h-5.22v2.34ZM349.32,18.12v4.5h3.72v-4.5h-3.72ZM373.74,21.3v-6.48h-5.1v6.48h5.1ZM373.74,33.9v-6.6h-5.1v6.6h5.1ZM373.74,39.9h-5.1v6.72h5.1v-6.72Z"/>
      <path class="cls-1" d="M423.54,45.12c4.36-.56,7.72-2.26,10.08-5.1,2.36-2.84,3.54-6.68,3.54-11.52,0-4.16-1.27-7.67-3.81-10.53-2.54-2.86-5.85-4.57-9.93-5.13-.96,7.6-2.09,13.97-3.39,19.11-1.3,5.14-2.74,9.05-4.32,11.73-1.58,2.68-3.18,4.55-4.8,5.61-1.62,1.06-3.47,1.59-5.55,1.59-3.24,0-6.22-1.86-8.94-5.58-2.72-3.72-4.08-8.26-4.08-13.62,0-7.76,2.64-14.06,7.92-18.9,5.28-4.84,12.18-7.26,20.7-7.26,6.88,0,12.57,2.16,17.07,6.48,4.5,4.32,6.75,9.82,6.75,16.5s-1.77,12.54-5.31,16.74c-3.54,4.2-8.31,6.56-14.31,7.08l-1.62-7.2ZM415.5,13.2c-4.84.92-8.64,3.02-11.4,6.3-2.76,3.28-4.14,7.34-4.14,12.18,0,3.04.62,5.74,1.86,8.1,1.24,2.36,2.42,3.54,3.54,3.54.56,0,1.14-.27,1.74-.81s1.27-1.53,2.01-2.97,1.47-3.26,2.19-5.46c.72-2.2,1.45-5.1,2.19-8.7.74-3.6,1.41-7.66,2.01-12.18Z"/>
      <path class="cls-1" d="M47.88,114.6h8.46v6.6h-8.46v9.42h-7.8v-9.42h-11.7v-6.6h11.7v-5.82h-5.82c-.68,1.64-1.5,3.38-2.46,5.22l-4.62-1.8v8.7c0,2.44-.04,4.25-.12,5.43-.08,1.18-.34,2.13-.78,2.85-.44.72-.94,1.15-1.5,1.29-.56.14-1.48.21-2.76.21-1.08,0-3.68-.1-7.8-.3l-.36-6.36c3,.2,4.76.3,5.28.3.76,0,1.2-.12,1.32-.36.12-.24.18-1.06.18-2.46v-3.78h-11.52c-.6,5.44-1.58,9.9-2.94,13.38l-6.18-5.16c1.08-2.8,1.83-6.06,2.25-9.78.42-3.72.63-9.54.63-17.46v-3.42l-2.88-1.92c3.44-5.36,5.92-11.64,7.44-18.84l7.44.72c-.12.68-.34,1.7-.66,3.06h9.72v6.12c-.44,1.4-.98,2.82-1.62,4.26h4.86v5.64c4.4-2.48,7.08-5.88,8.04-10.2h-7.14v-6.54h27.66c-.12,3.24-.23,5.84-.33,7.8-.1,1.96-.27,3.74-.51,5.34-.24,1.6-.49,2.78-.75,3.54-.26.76-.68,1.39-1.26,1.89-.58.5-1.17.8-1.77.9-.6.1-1.42.15-2.46.15-1.76,0-4.54-.1-8.34-.3l-.48-5.28c-1.48,2.76-3.54,5.08-6.18,6.96l3.78.66c-.08.32-.38,1.38-.9,3.18h3.84v-3.84h7.5v3.84h7.5v6.36h-7.5v5.82ZM9.78,106.08c0,.2-.06,2.04-.18,5.52h2.88v-5.52h-2.7ZM9.78,100.32h2.7v-5.34h-2.7v5.34ZM14.76,88.68c.76-1.56,1.4-2.98,1.92-4.26h-4.38c-.72,1.92-1.3,3.34-1.74,4.26h4.2ZM17.88,100.32h2.76v-5.34h-2.76v5.34ZM17.88,106.08v5.52h2.76v-5.52h-2.76ZM30.06,100.32l-2.88-4.56v12.18c.88-1.92,1.84-4.46,2.88-7.62ZM42.3,84.12c-.36,2.36-1.02,4.54-1.98,6.54,2.04.16,3.64.24,4.8.24,1.08,0,1.76-.34,2.04-1.02.28-.68.48-2.6.6-5.76h-5.46Z"/>
      <path class="cls-1" d="M70.92,104.34c-3.6-3.36-7.28-6.42-11.04-9.18l4.44-5.34c3.44,2.44,7.14,5.46,11.1,9.06l-4.5,5.46ZM76.8,109.98c-2.12,7.52-5.14,14.3-9.06,20.34l-6.3-4.02c3.48-5.48,6.4-11.78,8.76-18.9l6.6,2.58ZM62.46,81.96l4.44-5.34c3.4,2.4,6.74,5.08,10.02,8.04l-4.5,5.46c-2.92-2.68-6.24-5.4-9.96-8.16ZM91.92,75.9h7.92v7.5h13.98v18.48h3.18v6.6h-16.2c2.08,6.24,7.68,11.46,16.8,15.66l-3.84,6.54c-3.68-1.64-7.04-3.85-10.08-6.63-3.04-2.78-5.48-5.85-7.32-9.21-1.88,3.44-4.37,6.55-7.47,9.33-3.1,2.78-6.59,4.95-10.47,6.51l-4.08-6.54c4.8-2,8.55-4.26,11.25-6.78,2.7-2.52,4.53-5.48,5.49-8.88h-15.06v-6.6h15.9v-11.7h-13.02v-6.78h13.02v-7.5ZM99.84,90.18v11.7h6.48v-11.7h-6.48Z"/>
      <path class="cls-1" d="M159.36,105.48c0,7.68-.93,13.34-2.79,16.98-1.86,3.64-4.39,5.46-7.59,5.46-1.56,0-3.57-.27-6.03-.81-2.46-.54-4.69-1.21-6.69-2.01l2.1-6.9c4.24,1.52,7.24,2.28,9,2.28.4,0,.78-.18,1.14-.54.36-.36.72-.95,1.08-1.77.36-.82.67-1.84.93-3.06.26-1.22.47-2.76.63-4.62.16-1.86.24-3.93.24-6.21v-4.11c0-.82-.08-1.69-.24-2.61-.16-.92-.3-1.5-.42-1.74-.12-.24-.44-.49-.96-.75-.52-.26-.99-.39-1.41-.39h-8.61c-2.64,11.28-6.24,22.52-10.8,33.72l-6.78-2.4c3.92-9.72,7.24-20.16,9.96-31.32h-8.94v-6.78h10.5c.92-4.36,1.68-8.38,2.28-12.06l7.2.66c-.52,3.76-1.18,7.56-1.98,11.4h8.76c1,0,2.12.12,3.36.36,1.24.24,2.1.44,2.58.6.48.16,1.02.62,1.62,1.38.6.76.96,1.44,1.08,2.04.12.6.28,1.67.48,3.21.2,1.54.3,2.95.3,4.23v5.76ZM167.64,88.92l-6.18,2.94c-1.56-3.16-3.26-6.34-5.1-9.54l6.18-3.12c1.84,3.4,3.54,6.64,5.1,9.72ZM169.74,116.88c-2.16-7.08-4.72-14.3-7.68-21.66l7.08-2.52c3.4,8.48,6.04,15.88,7.92,22.2l-7.32,1.98ZM177.36,87l-6.3,3c-1.8-3.48-3.54-6.72-5.22-9.72l6.3-3.18c1.44,2.6,3.18,5.9,5.22,9.9Z"/>
      <path class="cls-1" d="M185.76,114.72c0-2.12.7-4.37,2.1-6.75,1.4-2.38,3.8-5.23,7.2-8.55l5.82,4.44c-4.6,4.48-6.9,7.82-6.9,10.02,0,2.08,1.28,3.74,3.84,4.98,2.56,1.24,6.2,1.86,10.92,1.86,2.8,0,6.17-.28,10.11-.84,3.94-.56,7.23-1.22,9.87-1.98l1.5,7.2c-2.72.76-6.19,1.42-10.41,1.98-4.22.56-7.91.84-11.07.84-7.16,0-12.78-1.2-16.86-3.6-4.08-2.4-6.12-5.6-6.12-9.6ZM191.16,88.5v-7.02h35.4v7.02h-35.4Z"/>
      <path class="cls-1" d="M245.76,114.72c0-2.12.7-4.37,2.1-6.75,1.4-2.38,3.8-5.23,7.2-8.55l5.82,4.44c-4.6,4.48-6.9,7.82-6.9,10.02,0,2.08,1.28,3.74,3.84,4.98,2.56,1.24,6.2,1.86,10.92,1.86,2.8,0,6.17-.28,10.11-.84,3.94-.56,7.23-1.22,9.87-1.98l1.5,7.2c-2.72.76-6.19,1.42-10.41,1.98-4.22.56-7.91.84-11.07.84-7.16,0-12.78-1.2-16.86-3.6-4.08-2.4-6.12-5.6-6.12-9.6ZM251.16,88.5v-7.02h35.4v7.02h-35.4Z"/>
      <path class="cls-1" d="M316.02,79.56c-1.92,7.32-2.88,15.3-2.88,23.94s.96,16.62,2.88,23.94l-7.86.9c-2-7.64-3-15.92-3-24.84s1-17.2,3-24.84l7.86.9ZM351.72,117.12l1.08,6.96c-4.56,1.2-9.3,1.8-14.22,1.8-5.64,0-10.09-1.09-13.35-3.27-3.26-2.18-4.89-5.09-4.89-8.73,0-1.76.67-3.83,2.01-6.21,1.34-2.38,3.17-4.61,5.49-6.69l5.64,4.5c-1.64,1.6-2.92,3.13-3.84,4.59-.92,1.46-1.38,2.63-1.38,3.51,0,3.4,3.44,5.1,10.32,5.1,4.32,0,8.7-.52,13.14-1.56ZM325.38,90.3v-7.02h25.8v7.02h-25.8Z"/>
      <path class="cls-1" d="M366.18,83.52h12v-6.84h7.38v6.84h25.38v6.36h-25.38v5.4c2.04-.24,4.18-.36,6.42-.36,6.88,0,12.2,1.5,15.96,4.5s5.64,7.1,5.64,12.3c0,4.52-1.56,8.39-4.68,11.61-3.12,3.22-7.36,5.35-12.72,6.39l-2.04-6.84c3.6-.76,6.47-2.16,8.61-4.2,2.14-2.04,3.21-4.36,3.21-6.96,0-3.68-1.46-6.36-4.38-8.04-2.76,7.24-6.56,12.89-11.4,16.95-4.84,4.06-9.84,6.09-15,6.09-3.52,0-6.34-1.05-8.46-3.15-2.12-2.1-3.18-4.93-3.18-8.49,0-4.08,1.28-7.7,3.84-10.86,2.56-3.16,6.16-5.56,10.8-7.2v-7.14h-12v-6.36ZM378.18,104.7c-4.68,2.48-7.02,5.68-7.02,9.6,0,1.8.42,3.18,1.26,4.14s2.02,1.44,3.54,1.44c.8,0,1.54-.08,2.22-.24v-14.94ZM394.68,101.82c-1.12-.08-2.02-.12-2.7-.12-2.28,0-4.42.18-6.42.54v13.2c3.84-3.44,6.88-7.98,9.12-13.62Z"/>
      <path class="cls-1" d="M457.02,120.72c4.28-1.68,6.42-4.78,6.42-9.3,0-2.76-.97-4.84-2.91-6.24-1.94-1.4-5.03-2.1-9.27-2.1s-8.15.47-11.85,1.41c-3.7.94-7.79,2.53-12.27,4.77l-2.76-5.52,28.02-16.98v-.06h-23.94v-6.6h38.22l.06,6.78-19.68,10.92.06.06c2.64-.52,5.08-.78,7.32-.78,5.72,0,10.05,1.18,12.99,3.54,2.94,2.36,4.41,5.72,4.41,10.08,0,5.68-2.06,10.07-6.18,13.17-4.12,3.1-9.98,4.65-17.58,4.65-5.96,0-10.42-.91-13.38-2.73-2.96-1.82-4.44-4.45-4.44-7.89,0-2.64,1.26-4.87,3.78-6.69,2.52-1.82,6-2.73,10.44-2.73s7.86.76,9.9,2.28c2.04,1.52,3.06,3.76,3.06,6.72,0,1.08-.14,2.16-.42,3.24ZM449.64,122.04c.68-1.48,1.02-2.72,1.02-3.72,0-1.24-.48-2.19-1.44-2.85-.96-.66-2.68-.99-5.16-.99-2,0-3.53.33-4.59.99-1.06.66-1.59,1.47-1.59,2.43,0,2.8,3.4,4.2,10.2,4.2.16,0,.42,0,.78-.03.36-.02.62-.03.78-.03Z"/>
    </g>
  </g>
</svg>