<?xml version="1.0" encoding="UTF-8"?>
<svg id="_レイヤー_2" data-name="レイヤー 2" xmlns="http://www.w3.org/2000/svg" viewBox="0 0 581.49 80.19">
  <defs>
    <style>
      .cls-1 {
        fill: #444;
      }
    </style>
  </defs>
  <g id="_レイヤー_1-2" data-name="レイヤー 1">
    <g>
      <path class="cls-1" d="M.79,3.01h4.19V.77h2.29v2.23h3.96v1.91h-3.96v2.27c.46-.02.82-.04,1.08-.04,1.78,0,3.21.41,4.3,1.24s1.64,1.83,1.64,3.01c0,1.42-.44,2.53-1.31,3.35s-2.16,1.32-3.86,1.51l-.49-2.03c1.15-.14,1.99-.43,2.52-.87.53-.44.79-1.05.79-1.83,0-.6-.33-1.12-.98-1.56-.65-.44-1.53-.66-2.62-.66-.26,0-.62.01-1.08.04v3.74c0,1.1-.22,1.87-.65,2.29s-1.2.64-2.3.64c-1.2,0-2.22-.37-3.06-1.11-.84-.74-1.26-1.65-1.26-2.73s.44-2.01,1.31-2.85c.87-.85,2.1-1.46,3.68-1.83v-2.59H.79v-1.91ZM4.99,9.7c-.89.25-1.56.6-2.02,1.04-.46.44-.68.92-.68,1.45,0,.47.19.88.57,1.25s.79.55,1.23.55c.35,0,.58-.07.71-.22.13-.14.19-.41.19-.81v-3.26ZM11.81,3.42l1.6-1.13c1.07,1.42,2,2.78,2.79,4.1l-1.69,1.01c-.84-1.39-1.74-2.72-2.7-3.98Z"/>
      <path class="cls-1" d="M19.75,3.28V1.22h12.19v2.05c-1.44,1.36-3.01,2.59-4.72,3.71v.94h6.75v2.11h-6.75v3.62c0,.73-.02,1.27-.06,1.61-.04.34-.17.63-.4.86-.22.23-.5.37-.83.41-.33.04-.84.06-1.54.06-.46,0-1.45-.03-2.97-.09l-.11-2.05c1.42.06,2.29.09,2.63.09.4,0,.63-.04.7-.11.07-.07.11-.31.11-.72v-3.69h-7.34v-2.11h7.34v-2.07h.63c1.33-.85,2.52-1.71,3.56-2.57h-9.2Z"/>
      <path class="cls-1" d="M45.65,8.1l.02-.02c-.42-.85-.76-1.82-1.01-2.92-2.77.07-5.51.11-8.23.11v-2.03c2.6,0,5.23-.04,7.87-.11-.1-.73-.16-1.45-.2-2.16l2.29-.14c.04.86.1,1.61.18,2.23,1.92-.07,3.38-.13,4.37-.18l.07,2.03c-.9.05-2.26.11-4.09.18.37,1.5,1.07,3.05,2.09,4.64l-2.18,1.1c-1.3-.86-2.69-1.3-4.18-1.3-.91,0-1.62.18-2.12.55s-.76.86-.76,1.48c0,.83.37,1.47,1.12,1.92.74.45,1.85.68,3.33.68,1.32,0,2.78-.16,4.37-.49l.38,2.03c-1.52.32-3.11.49-4.75.49-2.3,0-4.02-.43-5.15-1.3-1.13-.86-1.69-2.01-1.69-3.44,0-1.2.46-2.16,1.37-2.88.91-.72,2.18-1.08,3.8-1.08,1.06,0,2.09.2,3.1.59Z"/>
      <path class="cls-1" d="M54.67,2.65h7.15V.9h2.27v1.75h4.63v2.03h-4.63v1.57h3.96v2h-3.96v2.92c1.3.73,2.71,1.79,4.25,3.19l-1.42,1.58c-.97-.91-1.94-1.71-2.92-2.39-.18,1.01-.61,1.73-1.29,2.18-.68.44-1.68.67-3,.67s-2.27-.3-3-.89c-.73-.59-1.09-1.42-1.09-2.48,0-.95.33-1.71,1-2.29s1.69-.87,3.09-.87c.72,0,1.42.1,2.11.31v-1.91h-6.48v-2h6.48v-1.57h-7.15v-2.03ZM61.81,12.28c-.71-.29-1.33-.43-1.87-.43-.71,0-1.21.1-1.52.29s-.46.49-.46.88c0,.42.15.75.46.98.31.23.73.35,1.29.35.82,0,1.37-.14,1.67-.43.29-.29.44-.83.44-1.64Z"/>
      <path class="cls-1" d="M82.93,9.41c0,2.3-.28,4-.84,5.09-.56,1.09-1.32,1.64-2.28,1.64-.47,0-1.07-.08-1.81-.24-.74-.16-1.41-.36-2.01-.6l.63-2.07c1.27.46,2.17.68,2.7.68.12,0,.23-.05.34-.16s.22-.29.32-.53c.11-.25.2-.55.28-.92.08-.37.14-.83.19-1.39.05-.56.07-1.18.07-1.86v-1.23c0-.25-.02-.51-.07-.78-.05-.28-.09-.45-.13-.52-.04-.07-.13-.15-.29-.22s-.3-.12-.42-.12h-2.58c-.79,3.38-1.87,6.76-3.24,10.12l-2.03-.72c1.18-2.92,2.17-6.05,2.99-9.4h-2.68v-2.03h3.15c.28-1.31.5-2.51.68-3.62l2.16.2c-.16,1.13-.35,2.27-.59,3.42h2.63c.3,0,.64.04,1.01.11.37.07.63.13.77.18.14.05.31.19.49.41.18.23.29.43.32.61.04.18.08.5.14.96s.09.88.09,1.27v1.73ZM85.41,4.45l-1.85.88c-.47-.95-.98-1.9-1.53-2.86l1.85-.94c.55,1.02,1.06,1.99,1.53,2.92ZM86.04,12.83c-.65-2.12-1.42-4.29-2.3-6.5l2.12-.76c1.02,2.54,1.81,4.76,2.38,6.66l-2.2.59ZM88.33,3.87l-1.89.9c-.54-1.04-1.06-2.02-1.57-2.92l1.89-.95c.43.78.95,1.77,1.57,2.97Z"/>
      <path class="cls-1" d="M88.96,3.83l1.91-.92c.46.91.82,1.7,1.1,2.36V.67h2.25v16.31h-2.25v-4.73c-.6.34-1.39.73-2.36,1.19l-.74-2.11c1-.43,2.03-.94,3.1-1.53v-2.2l-1.04.52c-.6-1.49-1.25-2.92-1.96-4.28ZM98.05,7.88l-2.02.58c-.48-1.56-.97-2.87-1.48-3.94l1.96-.61c.56,1.16,1.07,2.49,1.53,3.98ZM100.26,13.86l-1.55,1.44c-.83-.92-1.8-1.9-2.92-2.92l1.33-1.31h-2.23v-1.94h7.47v-1.12h1.51l-1.75-.61c.62-1.1,1.22-2.55,1.78-4.34l2.09.58c-.58,1.82-1.16,3.28-1.75,4.37h.5v1.12h1.51v1.94h-1.51v2.83c0,.5,0,.9-.03,1.18s-.07.55-.15.81c-.08.26-.18.44-.29.55-.11.11-.29.2-.55.28-.26.08-.53.13-.83.14-.29.02-.7.03-1.21.03-.31,0-.99-.03-2.03-.09l-.13-1.94c.9.06,1.48.09,1.75.09.53,0,.84-.04.94-.12.1-.08.14-.34.14-.78v-2.97h-4.88c1.02.92,1.94,1.85,2.77,2.79ZM94.97,1.53c4.52-.07,8.02-.35,10.49-.85l.38,1.93c-2.74.53-6.3.83-10.69.9l-.18-1.98ZM99.63,8.08c-.48-1.67-.95-3.02-1.4-4.05l2.02-.58c.5,1.16.97,2.52,1.4,4.07l-2.02.56Z"/>
      <path class="cls-1" d="M124.24,14.53l-1.13,2.02c-2.54-1.62-4.61-3.42-6.21-5.4v5.83h-2.41v-5.87c-1.56,1.97-3.63,3.78-6.21,5.44l-1.13-2.02c2.4-1.44,4.33-2.94,5.78-4.5h-5.33v-1.98h3.55c-.52-1.08-1.09-2.16-1.71-3.24l1.49-.67h-2.74v-1.94h6.3V.49h2.41v1.71h6.3v1.94h-2.88l1.58.63c-.37.94-.92,2.03-1.64,3.28h3.53v1.98h-5.33c1.45,1.56,3.38,3.06,5.78,4.5ZM111.62,4.14c.65,1.14,1.22,2.24,1.73,3.29l-1.39.61h2.52v-3.91h-2.86ZM119.41,8.05l-1.35-.61c.7-1.16,1.25-2.26,1.66-3.29h-2.83v3.91h2.52Z"/>
      <path class="cls-1" d="M125.71,12.76l1.76-1.51c1.1,1.21,2.26,2.56,3.46,4.03l-1.87,1.37c-1.04-1.32-2.16-2.62-3.35-3.89Z"/>
      <path class="cls-1" d="M151.43,13.82l-1.55,1.51c-.61-.78-1.16-1.43-1.66-1.96-.96,1.55-2.18,2.84-3.67,3.89l-1.31-1.67c1.46-1.06,2.6-2.3,3.42-3.73-.43-.38-.87-.73-1.31-1.04-.22.64-.38,1.07-.49,1.3l-1.66-1.69c.54-1.58.96-3.28,1.26-5.08h-1.31v-1.98h1.6c.08-.65.18-1.57.29-2.77l2.18.07c-.1,1.19-.18,2.09-.25,2.7h3.62c0,3.13-.45,5.8-1.35,8.01.76.76,1.49,1.57,2.2,2.45ZM146,8.69c.54.36,1.06.75,1.57,1.17.49-1.33.8-2.84.92-4.52h-1.8c-.22,1.33-.44,2.45-.68,3.35ZM160.38,7.92v2.11h-3.26v3.8c0,.59-.02,1.04-.05,1.35-.04.31-.1.59-.19.84-.09.25-.25.42-.49.51-.23.1-.5.16-.79.2-.29.04-.72.05-1.27.05-.7,0-1.55-.03-2.56-.09l-.11-2.05c1.26.06,2,.09,2.23.09.4,0,.63-.04.7-.11.07-.07.11-.31.11-.72v-3.87h-4.16v-2.11h4.16v-2.07h.61c.62-.76,1.24-1.61,1.84-2.57h-5.96V1.22h8.44v2.05c-.82,1.44-1.66,2.69-2.52,3.76v.88h3.26Z"/>
      <path class="cls-1" d="M171.76,9.61l.04-.02c-.22-.44-.46-.98-.72-1.6-3.11.1-6,.14-8.68.14v-1.93c2.65,0,5.32-.04,7.99-.11-.19-.67-.32-1.18-.4-1.51-1.92.06-4.19.09-6.8.09v-1.91c1.87,0,4.03-.03,6.46-.09-.08-.66-.13-1.27-.14-1.82l2.29-.13c.02.48.08,1.1.18,1.87.95-.04,2.44-.1,4.46-.2l.07,1.91c-1.81.1-3.21.16-4.19.2.16.65.29,1.15.41,1.51,1.87-.07,3.27-.13,4.19-.18l.07,1.93c-1.56.07-2.74.12-3.53.14.43.94.97,1.88,1.62,2.84l-2.29,1.24c-1.48-.66-2.81-.99-4-.99-1.03,0-1.77.12-2.21.35s-.67.58-.67,1.05c0,.64.33,1.1.99,1.4.66.3,1.81.45,3.44.45,1.26,0,2.68-.12,4.25-.36l.27,1.98c-1.51.24-3.02.36-4.52.36-4.6,0-6.89-1.28-6.89-3.83,0-1.01.45-1.81,1.35-2.39s2.23-.88,4-.88c1,0,1.98.16,2.95.47Z"/>
      <path class="cls-1" d="M179.89,5.17v-2.05h3.08c.26-1.02.47-1.87.63-2.54l2.16.29c-.14.7-.32,1.45-.54,2.25h3.01v2.05h-3.55c-.9,3.17-1.94,6.17-3.11,9.02l-2.09-.7c1.1-2.72,2.08-5.5,2.92-8.32h-2.5ZM195.43,5.53c-1-.17-2.03-.27-3.1-.31v5.78c1.04.65,2.2,1.55,3.46,2.7l-1.42,1.58c-.72-.62-1.43-1.22-2.14-1.78-.18.97-.61,1.69-1.28,2.14-.67.46-1.61.68-2.83.68-1.33,0-2.37-.31-3.12-.92-.75-.61-1.12-1.45-1.12-2.5s.37-1.85,1.11-2.46,1.78-.91,3.14-.91c.61,0,1.25.11,1.93.34V3.11c2.12,0,4.01.12,5.65.36l-.27,2.05ZM190.04,12.02c-.71-.36-1.35-.54-1.93-.54-.66,0-1.16.13-1.49.38s-.49.6-.49,1.04c0,.47.17.83.52,1.1.35.26.83.4,1.46.4.73,0,1.24-.15,1.51-.45.28-.3.41-.87.41-1.71v-.22Z"/>
      <path class="cls-1" d="M201.19,5.06v11.92h-2.3v-7.76c-.44.76-.88,1.38-1.31,1.87l-.68-2.81c1.49-2.05,2.53-4.61,3.13-7.69l2.21.4c-.23,1.43-.58,2.78-1.04,4.07ZM213.91,7.06h-4.36v7.34h3.92v2.03h-11.03v-2.03h4.64v-7.34h-4.95v-2.11h4.95V.77h2.47v4.18h4.36v2.11Z"/>
      <path class="cls-1" d="M231.97,10.35v1.71h-1.08v3.08h-2.34v-.81h-3.56v.07c0,.5-.02.89-.05,1.16-.04.27-.1.51-.2.73-.1.22-.27.36-.51.44-.25.08-.53.13-.84.17-.31.04-.76.05-1.35.05-.5,0-1.4-.03-2.7-.09l-.05-1.84c1.34.06,2.17.09,2.47.09.32,0,.51-.02.57-.05.05-.04.08-.17.08-.4v-.34h-6.32v-1.51h6.32v-.76h-6.98v-1.71h6.98v-.72h-6.32v-1.55h6.32v-.61h-5.69v-3.64h5.69v-.59h-6.8v-1.76h6.8V.4h2.59v1.08h6.8v1.76h-6.8v.59h5.69v3.64h-5.69v.61h5.9v2.27h1.08ZM219.04,6.12h3.35v-.81h-3.35v.81ZM224.98,6.12h3.35v-.81h-3.35v.81ZM224.98,10.35h3.56v-.72h-3.56v.72ZM224.98,12.82h3.56v-.76h-3.56v.76Z"/>
      <path class="cls-1" d="M237.92,1.64c-.58,2.2-.86,4.59-.86,7.18s.29,4.99.86,7.18l-2.36.27c-.6-2.29-.9-4.78-.9-7.45s.3-5.16.9-7.45l2.36.27ZM248.63,12.91l.32,2.09c-1.37.36-2.79.54-4.27.54-1.69,0-3.03-.33-4-.98-.98-.65-1.47-1.53-1.47-2.62,0-.53.2-1.15.6-1.86s.95-1.38,1.65-2.01l1.69,1.35c-.49.48-.88.94-1.15,1.38-.28.44-.41.79-.41,1.05,0,1.02,1.03,1.53,3.1,1.53,1.3,0,2.61-.16,3.94-.47ZM240.73,4.86v-2.11h7.74v2.11h-7.74Z"/>
      <path class="cls-1" d="M263.43,6.14h4.54v1.66h-10.85l-1.24.29c-.1-.54-.26-1.37-.5-2.5v11.39h-2.25V6.32c-.17,1.44-.4,2.92-.68,4.45l-1.6-.34c.38-2.11.68-4.25.9-6.41l1.39.16V.67h2.25v3.15l1.12-.29c.32,1.27.54,2.14.65,2.61h3.85v-.68h-3.78v-1.53h3.78v-.68h-4.36v-1.67h4.36V.41h2.45v1.15h4.18v1.67h-4.18v.68h3.69v1.53h-3.69v.68ZM264.49,16.88c-.44,0-1.21-.03-2.29-.09l-.05-1.84c.83.06,1.49.09,1.98.09.3,0,.47-.02.52-.05.05-.04.07-.17.07-.4v-.29h-5.45v2.61h-2.38v-8.53h10.26v6.01c0,.42,0,.75-.02.99-.01.24-.06.46-.13.68-.08.21-.17.36-.26.45-.1.09-.26.17-.49.23-.23.07-.47.1-.71.12-.25.01-.6.02-1.05.02ZM259.27,10.73h5.45v-.74h-5.45v.74ZM259.27,12.15v.74h5.45v-.74h-5.45Z"/>
      <path class="cls-1" d="M285.14,7.56l1.37.72c-.05,1.46-.26,2.54-.62,3.24-.37.7-.83,1.04-1.4,1.04-.42,0-.76-.16-1.04-.49-.27-.32-.49-.92-.66-1.8l-1.08,1.46c-.59-.76-1.04-1.33-1.37-1.71-.47,1.16-1.15,2.16-2.03,2.99l-.9-1.03c-2.27.32-4.85.6-7.74.83l-.18-1.89c1.04-.07,2.03-.14,2.97-.22v-.92h-2.12v-1.08c-.24.1-.43.17-.56.22l-.58-1.78c1.03-.36,1.74-.88,2.12-1.55h-1.8v-1.76h2.93v-.61h-2.38v-1.66h2.38V.4h2.34v1.17h2.36v1.66h-2.36v.61h2.72v-1.73h1.66V.4h2.11v1.71h3.24c0,5.11.13,7.67.38,7.67.08,0,.16-.74.23-2.21ZM269.46,15.98c.89-1.02,1.69-2.1,2.39-3.24l1.85.9c-.72,1.24-1.52,2.38-2.39,3.44l-1.85-1.1ZM271.35,8.15h1.35v-1.28c-.35.48-.8.91-1.35,1.28ZM272.9,6.57h1.06v-.97h-.65c-.08.32-.22.65-.41.97ZM275.02,17.01c-.13-1.08-.34-2.27-.61-3.58l2.2-.25c.32,1.37.55,2.57.67,3.62l-2.25.22ZM277.51,8.15v1.64h-2.7v.7c1.09-.11,1.96-.2,2.59-.29l.05.49c.56-.65.98-1.43,1.26-2.36-.3-.28-.61-.53-.92-.76-.26.06-.71.09-1.33.09-.78,0-1.33-.02-1.66-.07v.56h2.7ZM276.93,5.6h-.95v.34c0,.17.02.27.06.31.04.04.17.05.39.05.23,0,.37-.03.41-.1.05-.07.08-.27.09-.6ZM279.18,4.09h-1.57v1.22l1.19.13s0,.11,0,.18c0,.07,0,.13,0,.16.04.02.09.06.15.12.07.05.12.09.15.12.06-.64.09-1.28.09-1.93ZM279.38,17.01c-.37-1.15-.8-2.31-1.3-3.47l2.12-.5c.47,1.1.92,2.29,1.35,3.55l-2.18.43ZM282.67,9.63c-.19-1.31-.29-3.16-.31-5.54h-1.08c0,1.38-.1,2.59-.29,3.62.49.5,1.05,1.15,1.67,1.93ZM284.06,17.01c-.7-1.09-1.49-2.21-2.39-3.35l1.85-1.08c.84,1.09,1.64,2.23,2.41,3.4l-1.87,1.03Z"/>
      <path class="cls-1" d="M301.73,13.81l.2,2.03c-1.58.24-3.14.36-4.68.36-2.26,0-3.88-.27-4.88-.8-1-.53-1.49-1.37-1.49-2.49,0-.9.42-1.73,1.25-2.49.83-.76,2.09-1.41,3.77-1.95-.28-.59-.79-.88-1.53-.88-1.27,0-2.78,1.22-4.52,3.65l-1.89-1.13c1.4-1.96,2.5-3.8,3.29-5.54h-3.08v-1.91h3.87c.24-.64.47-1.3.7-2l2.32.43c-.14.43-.34.95-.58,1.57h7.49v1.91h-8.26c-.14.34-.37.84-.68,1.51l.02.04c.66-.26,1.28-.4,1.85-.4,1.61,0,2.69.72,3.26,2.16,1.28-.26,2.56-.47,3.82-.61l.18,1.98c-1.06.12-2.23.31-3.53.58.11.79.16,1.72.16,2.79h-2.39c0-.92-.02-1.65-.07-2.18-.98.32-1.74.68-2.26,1.07-.52.39-.78.78-.78,1.16,0,.34.09.61.27.82.18.21.57.39,1.17.53s1.44.22,2.52.22c1.22,0,2.72-.14,4.48-.41Z"/>
      <path class="cls-1" d="M307.53,16.87c-.24,0-.82-.03-1.75-.09l-.13-1.93c.8.06,1.31.09,1.53.09.13,0,.21-.04.23-.11.02-.07.04-.32.04-.74v-2.7c-.97.23-1.57.36-1.78.4l-.14-2.11c.72-.12,1.36-.25,1.93-.4v-3.74h-1.89v-1.98h1.89V.67h2.32v2.9h1.62v1.98h-1.62v3.11c.17-.05.61-.2,1.33-.45l.31,2.02c-.54.19-1.09.37-1.64.54v3.15c0,.73-.02,1.27-.05,1.62-.04.35-.14.63-.32.85s-.39.36-.66.41c-.26.05-.67.07-1.22.07ZM315.95,13.55l-1.6,1.39c-.86-1-1.74-1.91-2.63-2.75l1.44-1.3h-1.58v-1.94h6.52v-1.42h-6.52v-1.94h4v-1.66h-3.56v-1.89h3.56V.31h2.39v1.73h3.42v1.89h-3.42v1.66h4.03v1.94h-1.53v1.42h1.53v1.94h-1.53v3.01c0,.5,0,.9-.03,1.19-.02.29-.07.56-.14.81-.08.25-.17.43-.28.54-.11.11-.29.2-.53.29s-.51.13-.78.14c-.28.01-.66.02-1.15.02-.35,0-1.09-.03-2.23-.09l-.11-1.94c1,.06,1.64.09,1.93.09.48,0,.76-.04.84-.11.08-.07.12-.34.12-.79v-3.15h-4.68c.86.82,1.71,1.7,2.54,2.66Z"/>
      <path class="cls-1" d="M325.6,6.35c2.92-.7,5.12-1.04,6.62-1.04,3.7,0,5.54,1.54,5.54,4.63,0,3.89-3.16,5.83-9.47,5.83l-.16-2.05c2.59,0,4.46-.3,5.6-.9,1.14-.6,1.71-1.51,1.71-2.72,0-.92-.27-1.6-.82-2.03-.55-.43-1.42-.65-2.62-.65s-3.14.33-5.98.99l-.43-2.05Z"/>
      <path class="cls-1" d="M342.29,2.52c4.85,0,9.78-.12,14.8-.36l.09,2.16c-2.87.24-5.03.87-6.5,1.89-1.46,1.02-2.2,2.26-2.2,3.73,0,1.2.41,2.15,1.22,2.84.82.7,1.89,1.04,3.22,1.04.7,0,1.43-.07,2.2-.22l.27,2.2c-.9.17-1.76.25-2.59.25-2.1,0-3.77-.53-5.02-1.6s-1.87-2.5-1.87-4.28c0-1.1.34-2.15,1.03-3.13.68-.98,1.66-1.81,2.92-2.48v-.04c-2.63.11-5.15.16-7.56.16v-2.16Z"/>
      <path class="cls-1" d="M362.43,5.78v11.2h-2.18v-7.29c-.21.41-.46.82-.77,1.24l-.67-2.7c1.26-2.14,2.1-4.68,2.52-7.63l2.03.14c-.19,1.84-.5,3.52-.94,5.04ZM372.1,16.43l-.04-2.09c.54.12.95.18,1.24.18.13,0,.24-.14.31-.41s.14-.95.19-2.05.07-2.7.07-4.81v-1.08h-.79c-.12,2.75-.35,4.92-.7,6.51-.35,1.59-.85,3.02-1.51,4.27l-1.19-.81c-2.1.29-4.36.5-6.79.65l-.13-1.85c.86-.04,1.74-.09,2.63-.16v-.81h-2.41v-1.66h2.41v-.68h-2.32v-5.51h2.32v-.67h-2.36v-1.67h2.36v-.68c-.59.05-1.17.08-1.75.11l-.25-1.76c2.39-.12,4.55-.38,6.48-.77l.34,1.78c-.86.17-1.69.3-2.48.4v.94h2.41v.41h.92c.02-1.44.04-2.64.04-3.6h2.09c0,.94-.01,2.14-.04,3.6h2.86v1.44c0,2.82-.02,4.91-.04,6.26-.03,1.36-.12,2.42-.27,3.19-.15.77-.31,1.22-.49,1.34-.18.12-.49.18-.92.18-.62,0-1.36-.06-2.2-.18ZM365.54,8.33v-.77h-.79v.77h.79ZM365.54,9.41h-.79v.79h.79v-.79ZM367.65,8.33h.79v-.77h-.79v.77ZM367.65,9.41v.79h.79v-.79h-.79ZM369.85,5.45h-2.11v.67h2.11v-.67ZM367.74,14.58c.16-.01.47-.04.95-.09.47-.05.83-.08,1.05-.11.7-1.81,1.12-4.55,1.28-8.21h-.95v5.45h-2.32v.68h2.05v1.66h-2.05v.61Z"/>
      <path class="cls-1" d="M388.71.74l1.48,1.82c-2.26,1.7-4.37,3.19-6.35,4.45-.72.46-1.18.77-1.39.94s-.31.34-.31.52c0,.17.09.34.27.5.18.17.6.47,1.26.92,2.35,1.6,4.7,3.36,7.06,5.29l-1.6,1.73c-2.42-1.97-4.71-3.69-6.86-5.17-1.31-.9-2.12-1.52-2.42-1.87-.31-.35-.46-.82-.46-1.4,0-.64.16-1.13.49-1.48.32-.35,1.14-.94,2.45-1.78,2.17-1.4,4.3-2.89,6.39-4.46Z"/>
      <path class="cls-1" d="M395.44,6.79c1.78-.71,3.26-1.46,4.46-2.27l.94,1.67c-.37.25-.73.48-1.06.68,1.68-.36,2.88-.8,3.6-1.33.72-.53,1.08-1.16,1.08-1.89v-.32h-1.1c-.58.74-1.22,1.4-1.93,1.96l-1.78-1.26c1.3-1.07,2.28-2.26,2.95-3.58l2.25.27c-.08.25-.19.5-.32.76h6.86v1.85c-.5.96-1.16,1.81-1.98,2.54l-1.67-1.3c.43-.35.82-.76,1.17-1.24h-2.12v.32c0,1,.38,1.79,1.13,2.38.76.59,2.09,1.08,4,1.47l-.79,1.67h.54v1.84h-2.7c-.53.9-1.24,1.7-2.12,2.41,1.5.5,3.01,1.07,4.54,1.71l-1.3,1.78c-2.09-.97-3.85-1.72-5.27-2.25-2.03.97-4.78,1.66-8.24,2.07l-.58-1.93c2.48-.25,4.47-.61,5.96-1.08-.61-.19-1.4-.4-2.36-.63-.38.28-.73.52-1.04.72l-1.87-1.1c.91-.64,1.67-1.21,2.27-1.71h-3.22v-1.84h5.15c.26-.29.46-.5.58-.65-.53.16-1.06.28-1.6.38l-.72-1.66c-.95.5-1.87.94-2.75,1.3l-.92-1.76ZM399.01,4.1c-.97-.55-2.04-1.08-3.2-1.58l1.06-1.67c1.13.47,2.2.98,3.22,1.53l-1.08,1.73ZM404.48,12.69c.8-.46,1.5-1.01,2.09-1.67h-4.48c-.31.31-.61.59-.9.83,1.02.22,2.12.5,3.29.85ZM405.49,6.44c-.56.55-1.31,1.03-2.25,1.44l1.15.18c-.31.5-.56.88-.74,1.12h6.73c-2.34-.56-3.97-1.48-4.9-2.74Z"/>
      <path class="cls-1" d="M427.73,13.81l.2,2.03c-1.58.24-3.14.36-4.68.36-2.26,0-3.88-.27-4.88-.8-1-.53-1.49-1.37-1.49-2.49,0-.9.42-1.73,1.25-2.49.83-.76,2.09-1.41,3.77-1.95-.28-.59-.79-.88-1.53-.88-1.27,0-2.78,1.22-4.52,3.65l-1.89-1.13c1.4-1.96,2.5-3.8,3.29-5.54h-3.08v-1.91h3.87c.24-.64.47-1.3.7-2l2.32.43c-.14.43-.34.95-.58,1.57h7.49v1.91h-8.26c-.14.34-.37.84-.68,1.51l.02.04c.66-.26,1.28-.4,1.85-.4,1.61,0,2.69.72,3.26,2.16,1.28-.26,2.56-.47,3.82-.61l.18,1.98c-1.06.12-2.23.31-3.53.58.11.79.16,1.72.16,2.79h-2.39c0-.92-.02-1.65-.07-2.18-.98.32-1.74.68-2.26,1.07-.52.39-.78.78-.78,1.16,0,.34.09.61.27.82.18.21.57.39,1.17.53s1.44.22,2.52.22c1.22,0,2.72-.14,4.48-.41Z"/>
      <path class="cls-1" d="M438.73,2.74v1.91h-2c.73.79,1.57,1.76,2.5,2.9V1.03h8.28v9.83h-7.56c.85.58,1.61,1.18,2.29,1.82l-1.33,1.44c-.84-.79-1.8-1.53-2.88-2.21l1.21-1.21v-2.57l-1.03,1.31c-.79-1.15-1.4-2.02-1.82-2.59v4.32h-2.29v-3.26c-.7,1.04-1.41,1.88-2.14,2.52l-1.03-2.07c1.39-1.13,2.45-2.35,3.17-3.65v-.05h-2.52v-1.91h2.52V.67h2.29v2.07h2.34ZM431.03,15.35c.97-1.07,1.69-2.24,2.16-3.53l1.91.88c-.5,1.51-1.29,2.84-2.36,3.98l-1.71-1.33ZM443.93,12.33l1.89-.97c.97,1.32,1.81,2.72,2.52,4.21l-1.96.9c-.47-.98-.97-1.89-1.49-2.72-.05.67-.11,1.19-.18,1.54-.07.35-.21.65-.41.88-.2.23-.45.39-.74.46-.29.07-.71.13-1.28.18-.54.05-1.31.07-2.32.07-.94,0-1.71-.02-2.32-.05-.54-.02-.95-.07-1.21-.13-.27-.06-.49-.19-.67-.39-.17-.2-.28-.44-.32-.73s-.06-.73-.06-1.31v-2.48h2.39v2.2c0,.44.03.71.09.81.06.1.23.16.52.18.36.04.87.05,1.53.05.6,0,1.1-.02,1.51-.05.52-.05.85-.17.99-.37.14-.2.24-.71.29-1.52l1.96.31c-.31-.48-.55-.83-.72-1.06ZM441.52,3.94h3.65v-1.08h-3.65v1.08ZM441.52,5.42v1.1h3.65v-1.1h-3.65ZM441.52,7.99v1.15h3.65v-1.15h-3.65Z"/>
      <path class="cls-1" d="M459.63,16.88c-.44,0-1.4-.03-2.88-.09l-.09-1.4c-1.02.56-2.09,1.06-3.22,1.48l-.72-1.85c2.66-.86,4.77-1.91,6.32-3.13-.07-.25-.16-.5-.27-.76-1.42,1.07-3.2,1.99-5.35,2.77l-.67-1.73c2.15-.66,3.89-1.45,5.24-2.38-.13-.18-.28-.36-.43-.54-1.19.7-2.56,1.31-4.1,1.85l-.65-1.6c1.03-.28,2.05-.62,3.04-1.04h-2.07v-1.76l-1.1-.77s-.03.07-.06.13c-.03.07-.05.12-.06.15v10.78h-2.2v-7.22c-.41.64-.74,1.1-.99,1.39l-.56-2.93c.71-1,1.3-2.09,1.79-3.29.49-1.2.91-2.65,1.27-4.34l2.23.4c-.24,1.46-.61,2.84-1.1,4.14,1.43-1.46,2.49-3.05,3.19-4.77l2.29.32c-.05.16-.13.39-.25.7h5.09v1.71c-.23.35-.4.59-.5.72h2.92v4.64h-3.31c.17.65.42,1.33.76,2.03.54-.59,1.04-1.2,1.49-1.84l1.49,1.19c-.58.85-1.22,1.67-1.94,2.45.66.96,1.42,1.79,2.29,2.48l-1.15,1.94c-1.09-.85-2.08-2.02-2.98-3.5-.89-1.48-1.56-3.07-2.01-4.76h-.81c1.27,1.64,1.91,3.43,1.91,5.35,0,1.2-.14,2.01-.41,2.44s-.75.64-1.43.64ZM458.62,5.54h-2.61v1.35h2.61v-1.35ZM460.03,3.82c.07-.08.18-.21.32-.37.14-.16.25-.28.32-.35h-3.29c-.26.42-.41.66-.45.72h3.1ZM459.27,13.66c-.61.49-1.22.92-1.84,1.3.35.02.75.04,1.21.04.28,0,.45-.07.52-.2.07-.13.11-.47.11-1.03v-.11ZM460.8,5.54v1.35h2.65v-1.35h-2.65Z"/>
      <path class="cls-1" d="M470.23,1.31l2.45.07c-.16,2.81-.23,5.47-.23,7.97,0,1.3.11,2.28.32,2.96.21.68.51,1.13.91,1.37.4.23.97.35,1.71.35,2.28,0,4.1-1.73,5.47-5.18l2.14.83c-1.64,4.43-4.18,6.64-7.61,6.64-2.04,0-3.45-.5-4.23-1.48-.78-.99-1.17-2.82-1.17-5.48s.08-5.25.25-8.05Z"/>
      <path class="cls-1" d="M486.29,2.52c4.85,0,9.78-.12,14.8-.36l.09,2.16c-2.87.24-5.03.87-6.5,1.89-1.46,1.02-2.2,2.26-2.2,3.73,0,1.2.41,2.15,1.22,2.84.82.7,1.89,1.04,3.22,1.04.7,0,1.43-.07,2.2-.22l.27,2.2c-.9.17-1.76.25-2.59.25-2.1,0-3.77-.53-5.02-1.6s-1.87-2.5-1.87-4.28c0-1.1.34-2.15,1.03-3.13.68-.98,1.66-1.81,2.92-2.48v-.04c-2.63.11-5.15.16-7.56.16v-2.16Z"/>
      <path class="cls-1" d="M514.71.74l1.48,1.82c-2.26,1.7-4.37,3.19-6.35,4.45-.72.46-1.18.77-1.39.94s-.31.34-.31.52c0,.17.09.34.27.5.18.17.6.47,1.26.92,2.35,1.6,4.7,3.36,7.06,5.29l-1.6,1.73c-2.42-1.97-4.71-3.69-6.86-5.17-1.31-.9-2.12-1.52-2.42-1.87-.31-.35-.46-.82-.46-1.4,0-.64.16-1.13.49-1.48.32-.35,1.14-.94,2.45-1.78,2.17-1.4,4.3-2.89,6.39-4.46Z"/>
      <path class="cls-1" d="M522.31,5.04v-2.03h2.86c.17-.96.29-1.69.38-2.18l2.29.2c-.14.89-.26,1.55-.34,1.98h6.01c-.12-.24-.3-.58-.55-1.04-.25-.45-.4-.73-.46-.85l1.69-.85c.49.92.95,1.81,1.37,2.65l-1.67.79v1.33h-6.79c-.8,4.01-1.82,7.84-3.06,11.48l-2.27-.52c1.22-3.59,2.22-7.24,2.99-10.96h-2.45ZM536.63,13.81l.27,2.03c-1.28.24-2.55.36-3.8.36-1.66,0-2.98-.3-3.97-.91-.99-.61-1.49-1.38-1.49-2.33s.6-1.85,1.8-2.79l1.64,1.04c-.47.4-.78.7-.94.91s-.23.41-.23.6c0,.42.28.77.85,1.04s1.35.41,2.33.41c1.07,0,2.24-.12,3.53-.36ZM529.07,6.89c2.34-.28,4.81-.41,7.42-.41v2.02c-2.56,0-4.98.14-7.27.41l-.14-2.02ZM538.33,2.7l-1.73.83c-.65-1.25-1.12-2.14-1.4-2.66l1.73-.86c.55,1.01,1.02,1.91,1.4,2.7Z"/>
      <path class="cls-1" d="M549.65,8.1l.02-.02c-.42-.85-.76-1.82-1.01-2.92-2.77.07-5.51.11-8.23.11v-2.03c2.6,0,5.23-.04,7.87-.11-.1-.73-.16-1.45-.2-2.16l2.29-.14c.04.86.1,1.61.18,2.23,1.92-.07,3.38-.13,4.37-.18l.07,2.03c-.9.05-2.26.11-4.09.18.37,1.5,1.07,3.05,2.09,4.64l-2.18,1.1c-1.3-.86-2.69-1.3-4.18-1.3-.91,0-1.62.18-2.12.55s-.76.86-.76,1.48c0,.83.37,1.47,1.12,1.92.74.45,1.85.68,3.33.68,1.32,0,2.78-.16,4.37-.49l.38,2.03c-1.52.32-3.11.49-4.75.49-2.3,0-4.02-.43-5.15-1.3s-1.69-2.01-1.69-3.44c0-1.2.46-2.16,1.37-2.88.91-.72,2.18-1.08,3.8-1.08,1.06,0,2.09.2,3.1.59Z"/>
      <path class="cls-1" d="M561.78,2.95c-.55,1.9-.83,3.91-.83,6.05,0,1.33.21,2.45.64,3.37.43.91.85,1.37,1.27,1.37.3,0,.7-.34,1.21-1.03.5-.68,1-1.66,1.49-2.93l2.11.81c-.6,1.74-1.37,3.1-2.3,4.09-.94.98-1.83,1.48-2.68,1.48-1.02,0-1.96-.7-2.83-2.09-.87-1.39-1.31-3.08-1.31-5.06,0-2.26.3-4.36.9-6.32l2.34.27ZM568.57,3.2l2.21-.65c1.64,3.31,2.47,7.2,2.47,11.66h-2.39c0-1.93-.2-3.86-.6-5.78-.4-1.92-.96-3.67-1.68-5.24Z"/>
      <path class="cls-1" d="M576.48,16.03c-.58-.58-.87-1.27-.87-2.08s.29-1.49.86-2.07c.58-.58,1.27-.86,2.09-.86s1.49.29,2.07.86c.58.58.86,1.27.86,2.07s-.29,1.51-.86,2.09c-.58.58-1.27.86-2.07.86s-1.5-.29-2.08-.87ZM577.64,13.04c-.25.25-.38.55-.38.91s.13.67.38.92.56.38.92.38.66-.13.91-.38c.25-.25.37-.56.37-.92s-.12-.66-.37-.91c-.25-.25-.55-.37-.91-.37s-.67.12-.92.37Z"/>
      <path class="cls-1" d="M8.41,37.19v-1.94h6.35v1.94h-6.35ZM8.89,34.49v-1.82h5.58v1.82h-5.58ZM24.61,38.79v3.92h-2.18v-2.12h-5.29v.76h2c0,1.44-.13,2.63-.38,3.56s-.63,1.68-1.12,2.23c-.5.55-1.18,1.04-2.04,1.46l-1.06-1.67v.99h-3.64v.65h-2v-5.49h5.63v3.58c.73-.38,1.27-.85,1.63-1.4.35-.55.58-1.33.69-2.37h-1.87v-4.1h9.63ZM9.04,39.74v-1.76h5.4v1.76h-5.4ZM9.04,42.28v-1.75h5.4v1.75h-5.4ZM10.89,46.19h1.8v-1.39h-1.8v1.39ZM24.84,33.26v1.91h-3.92v.97h3.24v1.82h-8.59v-1.82h2.97v-.97h-3.53v-1.91h3.53v-1.35h2.38v1.35h3.92ZM19.67,41.35h2.23v4.66c0,.18.02.29.06.32.04.04.17.05.39.05.26,0,.42-.11.47-.32.05-.22.08-.96.11-2.23l2,.27c-.02.6-.04,1.06-.05,1.39-.01.32-.04.67-.08,1.03s-.08.62-.12.77c-.04.16-.11.32-.23.5s-.22.29-.31.34c-.09.05-.25.1-.48.15-.23.05-.44.07-.62.08-.19,0-.47,0-.84,0-.43,0-.77,0-1.01-.02-.24-.01-.47-.04-.68-.1-.22-.05-.37-.12-.45-.19-.08-.07-.16-.19-.23-.37-.07-.17-.11-.36-.13-.56-.01-.2-.02-.47-.02-.82v-4.97Z"/>
      <path class="cls-1" d="M28.08,35.33v-2.03h7.45v2.03c-.06.61-.19,1.69-.4,3.22.86.05,1.8.19,2.81.43.02-.78.04-2.2.04-4.25h2.29c0,1.78-.03,3.43-.09,4.95.95.37,1.89.85,2.83,1.42l-1.01,1.94c-.67-.44-1.33-.81-1.98-1.1-.11.91-.25,1.68-.43,2.29s-.45,1.16-.8,1.62c-.35.46-.74.84-1.14,1.14-.41.3-.97.65-1.67,1.04l-1.17-1.91c.58-.31,1.01-.57,1.31-.78.29-.21.58-.5.85-.86.28-.37.47-.81.59-1.32.12-.52.22-1.19.29-2.02-1.03-.3-2.03-.47-3.01-.52-.19,1.16-.4,2.15-.61,2.97-.22.82-.44,1.47-.67,1.97-.23.5-.49.89-.78,1.17-.29.28-.58.47-.87.57-.29.1-.64.14-1.04.14-1,0-1.93-.47-2.79-1.4-.86-.93-1.3-1.98-1.3-3.14s.53-2.08,1.59-2.88c1.06-.8,2.53-1.3,4.4-1.48.14-1.13.26-2.21.36-3.24h-5.04ZM32.45,40.72c-1.09.14-1.92.42-2.49.82-.57.4-.85.87-.85,1.4,0,.49.19.98.56,1.47.37.49.73.73,1.06.73.66,0,1.24-1.47,1.73-4.41Z"/>
      <path class="cls-1" d="M53.91,40.43h6.93v1.48h-16.31v-1.48h6.93v-.49h-6.01v-1.26h6.01v-.49h-5.47v-1.21h5.47v-.52h-7.09v-1.66h7.09v-.52h-5.47v-1.44h5.47v-1.08h2.45v1.08h5.4v1.96h1.69v1.66h-1.69v1.73h-5.4v.49h6.01v1.26h-6.01v.49ZM48.42,47.83v.65h-2.39v-6.08h13.32v6.08h-2.39v-.65h-8.53ZM56.95,44.48v-.61h-8.53v.61h8.53ZM48.42,46.42h8.53v-.65h-8.53v.65ZM53.91,34.29v.52h3.06v-.52h-3.06ZM53.91,36.47v.52h3.06v-.52h-3.06Z"/>
      <path class="cls-1" d="M72.76,41.11l.04-.02c-.22-.44-.46-.98-.72-1.6-3.11.1-6,.14-8.68.14v-1.93c2.65,0,5.32-.04,7.99-.11-.19-.67-.32-1.18-.4-1.51-1.92.06-4.19.09-6.8.09v-1.91c1.87,0,4.03-.03,6.46-.09-.08-.66-.13-1.27-.14-1.82l2.29-.13c.02.48.08,1.1.18,1.87.95-.04,2.44-.1,4.46-.2l.07,1.91c-1.81.1-3.21.16-4.19.2.16.65.29,1.15.41,1.51,1.87-.07,3.27-.13,4.19-.18l.07,1.93c-1.56.07-2.74.12-3.53.14.43.94.97,1.88,1.62,2.84l-2.29,1.24c-1.48-.66-2.81-.99-4-.99-1.03,0-1.77.12-2.21.35s-.67.58-.67,1.05c0,.64.33,1.1.99,1.4.66.3,1.81.45,3.44.45,1.26,0,2.68-.12,4.25-.36l.27,1.98c-1.51.24-3.02.36-4.52.36-4.6,0-6.89-1.28-6.89-3.83,0-1.01.45-1.81,1.35-2.39s2.23-.88,4-.88c1,0,1.98.16,2.95.47Z"/>
      <path class="cls-1" d="M91.93,40.91c0,2.3-.28,4-.84,5.09-.56,1.09-1.32,1.64-2.28,1.64-.47,0-1.07-.08-1.81-.24-.74-.16-1.41-.36-2.01-.6l.63-2.07c1.27.46,2.17.68,2.7.68.12,0,.23-.05.34-.16s.22-.29.32-.53c.11-.25.2-.55.28-.92.08-.37.14-.83.19-1.39.05-.56.07-1.18.07-1.86v-1.23c0-.25-.02-.51-.07-.78-.05-.28-.09-.45-.13-.52-.04-.07-.13-.15-.29-.22s-.3-.12-.42-.12h-2.58c-.79,3.38-1.87,6.76-3.24,10.12l-2.03-.72c1.18-2.92,2.17-6.05,2.99-9.4h-2.68v-2.03h3.15c.28-1.31.5-2.51.68-3.62l2.16.2c-.16,1.13-.35,2.27-.59,3.42h2.63c.3,0,.64.04,1.01.11.37.07.63.13.77.18.14.05.31.19.49.41.18.23.29.43.32.61.04.18.08.5.14.96s.09.88.09,1.27v1.73ZM94.41,35.95l-1.85.88c-.47-.95-.98-1.9-1.53-2.86l1.85-.94c.55,1.02,1.06,1.99,1.53,2.92ZM95.04,44.33c-.65-2.12-1.42-4.29-2.3-6.5l2.12-.76c1.02,2.54,1.81,4.76,2.38,6.66l-2.2.59ZM97.33,35.37l-1.89.9c-.54-1.04-1.06-2.02-1.57-2.92l1.89-.95c.43.78.95,1.77,1.57,2.97Z"/>
      <path class="cls-1" d="M98.59,33.34h3.24v-1.42h2.34v1.42h5.04v-1.42h2.34v1.42h3.24v1.91h-3.24v1.42h-2.34v-1.42h-5.04v1.42h-2.34v-1.42h-3.24v-1.91ZM107.91,41.18h5.26v7.29h-2.39v-.83h-8.17v.83h-2.39v-7.29h5.26v-1.46h-6.88v-1.93h6.88v-1.85h2.45v1.85h6.88v1.93h-6.88v1.46ZM102.6,45.85h8.17v-2.79h-8.17v2.79Z"/>
      <path class="cls-1" d="M116.41,41.53h7.38v-2.11h-6.48v-1.98h6.48v-1.94c-1.88.13-3.79.2-5.71.2l-.11-2.03c2.48,0,4.92-.13,7.3-.38,2.38-.25,4.38-.59,6-1.01l.5,2.05c-1.55.4-3.39.71-5.53.95v2.16h5.81v1.98h-5.81v2.11h6.71v2.03h-6.71v1.85c0,.48,0,.86-.03,1.15s-.07.55-.14.8-.17.43-.27.54c-.1.11-.27.21-.5.29s-.47.13-.74.14c-.26.02-.62.03-1.06.03-.65,0-1.72-.03-3.22-.09l-.11-2.02c1.36.06,2.29.09,2.79.09.38,0,.61-.04.69-.13.08-.08.12-.32.12-.72v-1.94h-7.38v-2.03Z"/>
      <path class="cls-1" d="M134.93,34.02c4.85,0,9.78-.12,14.8-.36l.09,2.16c-2.89.24-5.06.88-6.52,1.92-1.45,1.04-2.18,2.33-2.18,3.88,0,1.27.4,2.27,1.21,2.99.81.72,1.89,1.08,3.23,1.08.7,0,1.43-.07,2.2-.22l.27,2.2c-.9.17-1.76.25-2.59.25-2.1,0-3.77-.55-5.02-1.64s-1.87-2.57-1.87-4.43c0-1.18.34-2.27,1.03-3.28.68-1.01,1.66-1.85,2.92-2.52v-.04c-2.63.11-5.15.16-7.56.16v-2.16ZM148.59,40.81l-1.85.88c-.47-.95-.98-1.9-1.53-2.86l1.85-.94c.55,1.02,1.06,1.99,1.53,2.92ZM151.51,40.23l-1.89.9c-.54-1.04-1.06-2.02-1.57-2.92l1.89-.95c.43.78.95,1.77,1.57,2.97Z"/>
      <path class="cls-1" d="M157.68,32.45l2.41.07c-.06.78-.11,1.46-.16,2.03h6.39v2.03h-6.52c-.02.36-.07,1.1-.13,2.23h5.38v2.03h-5.47c-.02.55-.04,1.27-.04,2.16,0,1.14.17,1.88.52,2.2.35.33,1.13.5,2.36.5,1.33,0,2.25-.17,2.76-.5.51-.34.77-.91.77-1.71,0-.34-.08-.83-.23-1.49l2.21-.5c.2.86.31,1.59.31,2.18,0,1.43-.47,2.48-1.4,3.17-.94.68-2.41,1.03-4.41,1.03s-3.4-.35-4.16-1.04c-.76-.69-1.13-1.96-1.13-3.82,0-.61.02-1.33.05-2.16h-3.89v-2.03h3.98c.06-1.13.1-1.87.13-2.23h-3.62v-2.03h3.74c.02-.24.05-.6.08-1.08.03-.48.05-.82.06-1.03Z"/>
      <path class="cls-1" d="M170.71,44.26l1.76-1.51c1.1,1.21,2.26,2.56,3.46,4.03l-1.87,1.37c-1.04-1.32-2.16-2.62-3.35-3.89Z"/>
      <path class="cls-1" d="M191.65,33.12h10.35v2.03c-2.15,1.48-4.18,2.65-6.08,3.51l.02.04,8.14-.59.13,2.03-5.04.36c-1.04.43-1.84.94-2.38,1.52s-.81,1.17-.81,1.77c0,1.25,1.18,1.87,3.55,1.87.94,0,1.95-.1,3.04-.31l.27,2.11c-1.01.19-2.11.29-3.31.29-2.1,0-3.64-.32-4.61-.97-.97-.65-1.46-1.54-1.46-2.68,0-.59.19-1.18.58-1.76.38-.59.94-1.12,1.66-1.58v-.04l-6.73.5-.13-2.03c1.62-.12,3.11-.47,4.48-1.06,1.37-.59,3-1.57,4.9-2.93l-.02-.04h-6.53v-2.03Z"/>
      <path class="cls-1" d="M206.71,35.15h3.89v-2.7h2.29v4.68c1.2-1.07,2.13-1.78,2.8-2.15s1.31-.55,1.93-.55c.89,0,1.52.28,1.9.85s.57,1.58.57,3.06c0,.66-.08,1.44-.23,2.34-.17,1.01-.25,1.79-.25,2.34,0,1.16.22,1.75.67,1.75.38,0,1.05-.46,2-1.37l1.17,1.64c-.6.65-1.25,1.16-1.95,1.55-.7.38-1.33.58-1.88.58-.84,0-1.45-.29-1.83-.87-.38-.58-.57-1.59-.57-3.03,0-.62.08-1.4.23-2.34.17-.96.25-1.74.25-2.34,0-.67-.06-1.13-.17-1.37-.11-.24-.28-.36-.5-.36-.44,0-1.82,1.09-4.14,3.26v7.9h-2.29v-5.71c-1.08,1.06-2,1.97-2.77,2.74l-1.53-1.51c2.34-2.34,3.77-3.76,4.3-4.27v-2.05h-3.89v-2.05Z"/>
      <path class="cls-1" d="M238.73,45.31l.2,2.03c-1.58.24-3.14.36-4.68.36-2.26,0-3.88-.27-4.88-.8-1-.53-1.49-1.37-1.49-2.49,0-.9.42-1.73,1.25-2.49.83-.76,2.09-1.41,3.77-1.95-.28-.59-.79-.88-1.53-.88-1.27,0-2.78,1.22-4.52,3.65l-1.89-1.13c1.4-1.96,2.5-3.8,3.29-5.54h-3.08v-1.91h3.87c.24-.64.47-1.3.7-2l2.32.43c-.14.43-.34.95-.58,1.57h7.49v1.91h-8.26c-.14.34-.37.84-.68,1.51l.02.04c.66-.26,1.28-.4,1.85-.4,1.61,0,2.69.72,3.26,2.16,1.28-.26,2.56-.47,3.82-.61l.18,1.98c-1.06.12-2.23.31-3.53.58.11.79.16,1.72.16,2.79h-2.39c0-.92-.02-1.65-.07-2.18-.98.32-1.74.68-2.26,1.07-.52.39-.78.78-.78,1.16,0,.34.09.61.27.82.18.21.57.39,1.17.53s1.44.22,2.52.22c1.22,0,2.72-.14,4.48-.41Z"/>
      <path class="cls-1" d="M256.81,43.6l2.21.23c-.02.53-.04.93-.05,1.21-.01.28-.04.59-.09.94-.05.35-.08.6-.1.76-.02.16-.08.34-.18.56-.1.22-.18.36-.24.42-.06.07-.18.15-.36.26-.18.11-.33.17-.46.19s-.34.04-.63.07c-.29.03-.55.04-.77.04h-.98c-.58,0-1.04,0-1.39-.03-.35-.02-.68-.06-.97-.12s-.51-.13-.66-.22c-.14-.08-.26-.21-.36-.39-.1-.17-.16-.36-.18-.56-.02-.2-.04-.46-.04-.8v-3.19h-1.67c-.3,2.87-2.49,4.72-6.57,5.56l-.95-1.96c1.63-.32,2.86-.78,3.69-1.37.83-.59,1.32-1.33,1.48-2.23h-3.17v-5.81h5.11v-1.4h-6.93v-1.98h6.93v-1.8h2.45v1.8h6.93v1.98h-6.93v1.4h5.11v5.81h-3.06v2.77c0,.26.06.42.17.47.11.05.51.07,1.18.07s1.07-.11,1.2-.33.22-1.01.3-2.37ZM246.76,41.17h7.85v-2.16h-7.85v2.16Z"/>
      <path class="cls-1" d="M265.7,48.37c-.38,0-1.21-.03-2.47-.09l-.11-2.05c.71.06,1.17.09,1.39.09s.34-.03.38-.1.05-.31.05-.73v-2.52h-1.85c-.13,2.2-.51,4.03-1.13,5.51l-1.91-1.37c.36-.9.61-1.91.75-3.04.14-1.13.21-2.81.21-5.06v-6.48h6.01v12.89c0,.94-.04,1.6-.11,2-.07.4-.19.65-.35.77-.16.12-.45.18-.86.18ZM263.16,36.77h1.78v-2.27h-1.78v2.27ZM263.16,38.65v2.45h1.78v-2.45h-1.78ZM276.68,32.53c-.07,1.49-.16,2.53-.25,3.12-.1.59-.23.98-.41,1.16-.17.18-.48.27-.91.27-.53,0-1.74-.03-3.64-.09l-.05-1.67c1.26.06,2.1.09,2.52.09.18,0,.29-.04.32-.13.04-.09.08-.39.14-.89h-4.34v3.31h6.53v1.87c-.3,1.87-.91,3.55-1.84,5.04.76.8,1.54,1.41,2.34,1.82l-.81,2.02c-1.01-.46-1.96-1.14-2.86-2.05-.7.78-1.49,1.45-2.38,2l-.99-1.53v1.53h-2.29v-15.86h8.89ZM270.27,40.91l1.91-1.06c.26,1.02.67,1.99,1.22,2.92.49-.97.85-2.04,1.06-3.2h-4.39v6.8c.76-.48,1.42-1.04,2-1.67-.78-1.16-1.38-2.42-1.8-3.78Z"/>
      <path class="cls-1" d="M281.23,32.81l2.45.07c-.16,2.81-.23,5.47-.23,7.97,0,1.3.11,2.28.32,2.96.21.68.51,1.13.91,1.37.4.23.97.35,1.71.35,2.28,0,4.1-1.73,5.47-5.18l2.14.83c-1.64,4.43-4.18,6.64-7.61,6.64-2.04,0-3.45-.5-4.23-1.48-.78-.99-1.17-2.82-1.17-5.48s.08-5.25.25-8.05Z"/>
      <path class="cls-1" d="M302.13,32.63v6.01h-3.1c-.05.66-.1,1.37-.16,2.12h3.33l-.05,1.39c-.1,1.92-.22,3.31-.36,4.18-.14.86-.32,1.41-.54,1.65-.22.23-.56.35-1.03.35s-1.54-.04-3.19-.13l-.05-2.03c1.22.08,1.95.13,2.18.13s.38-.16.44-.49c.07-.32.15-1.36.24-3.11h-1.15c-.05.53-.09.92-.13,1.17l-2.11-.13c.23-2.1.41-4.44.56-7.02h2.9v-2.11h-3.2v-1.98h5.42ZM309.82,44.01l1.89-.54c.55,1.5,1.06,3.06,1.53,4.68l-2.03.54c-.04-.14-.1-.39-.21-.74-.1-.35-.18-.62-.24-.81-2.9.5-5.69.81-8.37.92l-.13-1.98c1.67-.08,3.08-.19,4.23-.32v-2.47h-1.57v.9h-2.09v-6.7h3.65v-.81c-1.3.11-2.56.18-3.78.22l-.13-1.93c.11-.01.28-.02.5-.03.23,0,.4,0,.5,0,.46-.94.94-1.97,1.44-3.11l2.32.36c-.48,1.06-.9,1.93-1.26,2.61,1.63-.13,2.81-.23,3.53-.31-.05-.1-.34-.62-.86-1.57l1.94-.79c.91,1.52,1.73,3.08,2.47,4.68l-1.78.68h1.26v5.8h-3.85v2.18c.31-.04.78-.1,1.4-.2-.17-.58-.29-1-.38-1.26ZM306.49,39.2h-1.57v2.39h1.57v-2.39ZM308.79,37.49h2.32c-.12-.26-.32-.67-.59-1.22-.77.1-1.34.16-1.73.2v1.03ZM308.79,39.2v2.39h1.66v-2.39h-1.66Z"/>
      <path class="cls-1" d="M316.08,35.33v-2.03h7.45v2.03c-.06.61-.19,1.69-.4,3.22.86.05,1.8.19,2.81.43.02-.78.04-2.2.04-4.25h2.29c0,1.78-.03,3.43-.09,4.95.95.37,1.89.85,2.83,1.42l-1.01,1.94c-.67-.44-1.33-.81-1.98-1.1-.11.91-.25,1.68-.43,2.29-.18.62-.45,1.16-.8,1.62-.35.46-.74.84-1.14,1.14-.41.3-.97.65-1.67,1.04l-1.17-1.91c.58-.31,1.01-.57,1.3-.78.29-.21.58-.5.85-.86.28-.37.47-.81.59-1.32.12-.52.22-1.19.29-2.02-1.03-.3-2.03-.47-3.01-.52-.19,1.16-.4,2.15-.61,2.97-.22.82-.44,1.47-.67,1.97-.23.5-.49.89-.78,1.17s-.58.47-.87.57c-.29.1-.64.14-1.04.14-1,0-1.93-.47-2.79-1.4s-1.3-1.98-1.3-3.14.53-2.08,1.59-2.88c1.06-.8,2.53-1.3,4.4-1.48.14-1.13.26-2.21.36-3.24h-5.04ZM320.45,40.72c-1.09.14-1.92.42-2.49.82-.57.4-.86.87-.86,1.4,0,.49.19.98.56,1.47.37.49.73.73,1.06.73.66,0,1.24-1.47,1.73-4.41Z"/>
      <path class="cls-1" d="M336.92,33.14c-.58,2.2-.86,4.59-.86,7.18s.29,4.99.86,7.18l-2.36.27c-.6-2.29-.9-4.78-.9-7.45s.3-5.16.9-7.45l2.36.27ZM347.63,44.41l.32,2.09c-1.37.36-2.79.54-4.27.54-1.69,0-3.03-.33-4-.98-.98-.65-1.47-1.53-1.47-2.62,0-.53.2-1.15.6-1.86s.95-1.38,1.65-2.01l1.69,1.35c-.49.48-.88.94-1.15,1.38-.28.44-.41.79-.41,1.05,0,1.02,1.03,1.53,3.1,1.53,1.3,0,2.61-.16,3.94-.47ZM339.73,36.36v-2.11h7.74v2.11h-7.74Z"/>
      <path class="cls-1" d="M350.89,34.07h8.51v-1.98h2.29v1.98h4.79v1.93h-4.79v3.58c.31.68.47,1.49.47,2.41,0,1.82-.52,3.2-1.57,4.14s-2.78,1.54-5.2,1.8l-.36-2.09c1.72-.19,2.91-.48,3.57-.87.67-.39,1.08-.97,1.25-1.75,0-.01,0-.03,0-.04s0-.03,0-.04l-.02-.02c-.62.5-1.42.76-2.38.76-1.09,0-1.98-.33-2.67-1-.69-.67-1.04-1.51-1.04-2.55s.35-1.9,1.05-2.56c.7-.66,1.61-.99,2.73-.99.62,0,1.23.14,1.82.43h.04v-1.21h-8.51v-1.93ZM356.54,39.16c-.34.31-.5.69-.5,1.16s.17.85.5,1.16c.33.31.77.46,1.3.46s.96-.15,1.3-.46c.34-.31.5-.69.5-1.16s-.17-.85-.5-1.16c-.34-.31-.77-.46-1.3-.46s-.96.15-1.3.46Z"/>
      <path class="cls-1" d="M379.22,45.49c1.28-.5,1.93-1.43,1.93-2.79,0-.83-.29-1.45-.87-1.87-.58-.42-1.51-.63-2.78-.63s-2.44.14-3.55.42c-1.11.28-2.34.76-3.68,1.43l-.83-1.66,8.41-5.09v-.02h-7.18v-1.98h11.47l.02,2.03-5.9,3.28.02.02c.79-.16,1.52-.23,2.2-.23,1.72,0,3.02.35,3.9,1.06.88.71,1.32,1.72,1.32,3.02,0,1.7-.62,3.02-1.85,3.95-1.24.93-2.99,1.4-5.27,1.4-1.79,0-3.13-.27-4.01-.82s-1.33-1.33-1.33-2.37c0-.79.38-1.46,1.13-2.01.76-.55,1.8-.82,3.13-.82s2.36.23,2.97.68.92,1.13.92,2.02c0,.32-.04.65-.13.97ZM377.01,45.88c.2-.44.31-.82.31-1.12,0-.37-.14-.66-.43-.85-.29-.2-.8-.3-1.55-.3-.6,0-1.06.1-1.38.3-.32.2-.48.44-.48.73,0,.84,1.02,1.26,3.06,1.26.05,0,.13,0,.23,0,.11,0,.19,0,.23,0Z"/>
      <path class="cls-1" d="M393.98,47.88l-.11-2.16c1.56.12,2.71.18,3.46.18.41,0,.71-.11.91-.34.2-.23.35-.72.47-1.48.11-.76.17-1.89.17-3.4v-.14h-5.54c-.29,1.74-.83,3.2-1.63,4.39-.8,1.19-1.97,2.35-3.5,3.47l-1.62-1.8c1.25-.88,2.19-1.73,2.82-2.56s1.08-1.84,1.36-3.02c.28-1.19.41-2.77.41-4.75h-4.68v-2.03h6.93v-2.32h2.47v2.32h6.93v2.03h-9.18c0,.86-.02,1.6-.07,2.21h7.72v1.6c0,1.22-.02,2.25-.06,3.09s-.12,1.55-.23,2.16-.25,1.08-.4,1.43c-.16.35-.38.62-.67.82-.29.2-.59.33-.9.39s-.72.09-1.22.09c-.97,0-2.24-.06-3.82-.18Z"/>
      <path class="cls-1" d="M407.3,40.57c-1.08-1.01-2.18-1.93-3.31-2.75l1.33-1.6c1.03.73,2.14,1.64,3.33,2.72l-1.35,1.64ZM409.07,42.26c-.64,2.26-1.54,4.29-2.72,6.1l-1.89-1.21c1.04-1.64,1.92-3.53,2.63-5.67l1.98.77ZM404.77,33.86l1.33-1.6c1.02.72,2.02,1.52,3.01,2.41l-1.35,1.64c-.88-.8-1.87-1.62-2.99-2.45ZM416.05,42.3l2.14-.81c1.01,1.91,1.99,3.96,2.95,6.16l-2.16.79c-.07-.17-.18-.42-.32-.75-.14-.33-.24-.54-.29-.64-3.52.41-6.8.67-9.86.77l-.11-2.05c.46-.01,1.22-.04,2.3-.09.68-1.58,1.31-3.27,1.89-5.06h-3.73v-2.05h4.68v-2.63h-3.98v-1.98h3.98v-1.87h2.41v1.87h4.28v1.98h-4.28v2.63h5.09v2.05h-5.9c-.54,1.7-1.13,3.33-1.76,4.88,1.8-.14,3.16-.26,4.07-.36-.84-1.72-1.31-2.66-1.4-2.84Z"/>
      <path class="cls-1" d="M436.73,45.31l.2,2.03c-1.58.24-3.14.36-4.68.36-2.26,0-3.88-.27-4.88-.8-1-.53-1.49-1.37-1.49-2.49,0-.9.42-1.73,1.25-2.49.83-.76,2.09-1.41,3.77-1.95-.28-.59-.79-.88-1.53-.88-1.27,0-2.78,1.22-4.52,3.65l-1.89-1.13c1.4-1.96,2.5-3.8,3.29-5.54h-3.08v-1.91h3.87c.24-.64.47-1.3.7-2l2.32.43c-.14.43-.34.95-.58,1.57h7.49v1.91h-8.26c-.14.34-.37.84-.68,1.51l.02.04c.66-.26,1.28-.4,1.85-.4,1.61,0,2.69.72,3.26,2.16,1.28-.26,2.56-.47,3.82-.61l.18,1.98c-1.06.12-2.23.31-3.53.58.11.79.16,1.72.16,2.79h-2.39c0-.92-.02-1.65-.07-2.18-.98.32-1.74.68-2.26,1.07-.52.39-.78.78-.78,1.16,0,.34.09.61.27.82.18.21.57.39,1.17.53s1.44.22,2.52.22c1.22,0,2.72-.14,4.48-.41Z"/>
      <path class="cls-1" d="M440.53,41.09v-2.39h16.31v2.39h-16.31Z"/>
      <path class="cls-1" d="M458.06,47.29c.29-1.64.49-3.31.59-4.99l1.55.13c-.12,1.9-.32,3.61-.59,5.15l-1.55-.29ZM458.14,36l.99-2.16c.07.1.26.37.58.83.42-.9.8-1.81,1.13-2.72l1.85.65c-.5,1.21-1.1,2.48-1.8,3.82l.47.7c.56-.95,1.16-2.03,1.78-3.24l1.75.77c-.65,1.24-1.16,2.17-1.53,2.79l1.13-.29c.31,1.02.62,2.25.92,3.69,1.12-.6,2.14-1.28,3.06-2.05h-3.46v-1.96h2.75v-1.58h-2.25v-1.91h2.25v-1.48h2.38v1.48h2.83c.14-.25.29-.55.45-.88l1.91.92c-.61,1.26-1.32,2.41-2.12,3.46h2.11v1.96h-3.8c-.26.28-.68.68-1.26,1.21h4.43v8.46h-2.32v-.67h-3.96v.67h-2.21v-5.51c-.07.04-.17.09-.31.17-.13.08-.25.15-.36.21-.11.06-.21.11-.31.16l-.52-1.71-.67.14c-.06-.29-.1-.48-.13-.58l-1.19.07v7.06h-2.16v-6.89l-2.23.16-.07-2.09,1.58-.09c.05-.06.11-.16.2-.3.08-.14.15-.24.2-.31-.43-.62-1.13-1.61-2.09-2.95ZM463.41,39.35c-.24-.91-.36-1.37-.36-1.39-.08.14-.18.3-.28.46-.1.16-.22.34-.34.54-.13.2-.23.35-.3.46l1.28-.07ZM464.78,46.85l-1.44.11c-.06-1.39-.18-2.93-.36-4.63l1.39-.16c.19,1.63.33,3.19.41,4.68ZM468.4,43.09h3.96v-1.24h-3.96v1.24ZM468.4,44.77v1.28h3.96v-1.28h-3.96ZM471.78,35.24h-1.71v1.58h.45c.37-.41.79-.94,1.26-1.58Z"/>
      <path class="cls-1" d="M480.92,33.14c-.58,2.2-.86,4.59-.86,7.18s.29,4.99.86,7.18l-2.36.27c-.6-2.29-.9-4.78-.9-7.45s.3-5.16.9-7.45l2.36.27ZM491.63,44.41l.32,2.09c-1.37.36-2.79.54-4.27.54-1.69,0-3.03-.33-4-.98-.98-.65-1.47-1.53-1.47-2.62,0-.53.2-1.15.6-1.86s.95-1.38,1.65-2.01l1.69,1.35c-.49.48-.88.94-1.15,1.38-.28.44-.41.79-.41,1.05,0,1.02,1.03,1.53,3.1,1.53,1.3,0,2.61-.16,3.94-.47ZM483.73,36.36v-2.11h7.74v2.11h-7.74Z"/>
      <path class="cls-1" d="M509.29,42.43c-.08.95-.17,1.73-.24,2.34-.08.61-.18,1.15-.31,1.61-.13.46-.25.81-.37,1.05-.12.24-.29.43-.52.58-.23.14-.46.23-.68.27-.23.04-.53.05-.92.05-1.09,0-2.53-.04-4.32-.13l-.11-2c1.37.07,2.57.11,3.6.11.23,0,.38,0,.47-.02.08-.01.17-.1.26-.26.09-.16.15-.35.19-.58s.1-.62.18-1.18h-7.51c-.23.88-.41,1.54-.56,2l-2.39-.34c.4-1.22.74-2.59,1.04-4.1-.67.24-1.36.46-2.05.65l-.79-2.03c2.14-.54,4.12-1.23,5.96-2.07h-5.87v-1.89h6.08v-1.53h-4.54v-1.8h4.54v-1.26h2.47v1.26h3.87v1.1c.71-.61,1.35-1.27,1.93-1.96l1.8,1.22c-.89,1.03-1.93,2.02-3.13,2.97h3.65v1.89h-6.41c-.78.48-1.72.99-2.83,1.53,3.29-.23,6-.55,8.14-.97l.47,1.8c-2.62.5-6.23.86-10.85,1.08-.01.07-.03.18-.06.31-.03.14-.05.24-.06.3h9.88ZM505.94,34.96h-3.04v1.53h.86c.86-.54,1.59-1.05,2.18-1.53Z"/>
      <path class="cls-1" d="M514.62,36.77h11.63v2.36l-3.8,2.83.02.04h.05c.29,0,.54.14.76.42.22.28.41.78.59,1.48.17.67.35,1.09.55,1.26.2.17.59.25,1.18.25.76,0,1.47-.1,2.14-.29l.4,2.03c-.94.24-1.86.36-2.77.36-1.1,0-1.92-.17-2.45-.51-.53-.34-.89-.93-1.1-1.75-.17-.65-.33-1.09-.5-1.33s-.36-.36-.58-.36c-.24,0-.62.18-1.14.53-.52.35-2.18,1.55-4.96,3.59l-1.31-1.76,9.67-7.07-.02-.02h-8.35v-2.05ZM516.29,34.69l.27-2.05c2.95.41,5.75.61,8.39.61v2.09c-2.64,0-5.53-.22-8.66-.65Z"/>
      <path class="cls-1" d="M531.67,34.15h7.15v-1.75h2.27v1.75h4.63v2.03h-4.63v1.57h3.96v2h-3.96v2.92c1.3.73,2.71,1.79,4.25,3.19l-1.42,1.58c-.97-.91-1.94-1.71-2.92-2.39-.18,1.01-.61,1.73-1.29,2.18s-1.68.67-3,.67-2.27-.3-3-.89c-.73-.59-1.09-1.42-1.09-2.48,0-.95.33-1.71,1-2.29s1.7-.87,3.09-.87c.72,0,1.42.1,2.11.31v-1.91h-6.48v-2h6.48v-1.57h-7.15v-2.03ZM538.81,43.78c-.71-.29-1.33-.43-1.87-.43-.71,0-1.21.1-1.52.29-.31.19-.46.49-.46.88,0,.42.15.75.46.98.31.23.73.35,1.29.35.82,0,1.37-.14,1.67-.43.29-.29.44-.83.44-1.64Z"/>
      <path class="cls-1" d="M548.89,34.07h8.51v-1.98h2.29v1.98h4.79v1.93h-4.79v3.58c.31.68.47,1.49.47,2.41,0,1.82-.52,3.2-1.57,4.14s-2.78,1.54-5.2,1.8l-.36-2.09c1.72-.19,2.91-.48,3.57-.87.67-.39,1.08-.97,1.25-1.75,0-.01,0-.03,0-.04s0-.03,0-.04l-.02-.02c-.62.5-1.42.76-2.38.76-1.09,0-1.98-.33-2.67-1-.69-.67-1.04-1.51-1.04-2.55s.35-1.9,1.05-2.56c.7-.66,1.61-.99,2.73-.99.62,0,1.23.14,1.82.43h.04v-1.21h-8.51v-1.93ZM554.54,39.16c-.34.31-.5.69-.5,1.16s.17.85.5,1.16c.33.31.77.46,1.3.46s.96-.15,1.3-.46c.34-.31.5-.69.5-1.16s-.17-.85-.5-1.16c-.34-.31-.77-.46-1.3-.46s-.96.15-1.3.46Z"/>
      <path class="cls-1" d="M567.48,47.53c-.58-.58-.87-1.27-.87-2.08s.29-1.49.86-2.07c.58-.58,1.27-.86,2.09-.86s1.49.29,2.07.86c.58.58.86,1.27.86,2.07s-.29,1.51-.86,2.09c-.58.58-1.27.86-2.07.86s-1.5-.29-2.08-.87ZM568.64,44.54c-.25.25-.38.55-.38.91s.13.67.38.92.56.38.92.38.66-.13.91-.38c.25-.25.37-.56.37-.92s-.12-.66-.37-.91c-.25-.25-.55-.37-.91-.37s-.67.12-.92.37Z"/>
      <path class="cls-1" d="M44.89,72.36h-.04v5.94h-2.52v-13.14h2.52v5.4h.04l2.43-5.4h2.66l-2.88,6.21,2.97,6.93h-2.7l-2.48-5.94Z"/>
      <path class="cls-1" d="M58.18,78.3h-6.48v-2.07h1.94v-9h-1.94v-2.07h6.48v2.07h-1.94v9h1.94v2.07Z"/>
      <path class="cls-1" d="M62.89,72.36h-.04v5.94h-2.52v-13.14h2.52v5.4h.04l2.43-5.4h2.66l-2.88,6.21,2.97,6.93h-2.7l-2.48-5.94Z"/>
      <path class="cls-1" d="M75.83,77.51c-.59.65-1.55.97-2.9.97s-2.31-.32-2.9-.97c-.59-.65-.88-1.76-.88-3.35v-9h2.56v8.28c0,1.21.09,2,.26,2.37.17.37.51.55,1,.55s.82-.18,1-.55c.17-.37.26-1.15.26-2.37v-8.28h2.48v9c0,1.58-.29,2.7-.88,3.35Z"/>
      <path class="cls-1" d="M83.2,67.41v10.89h-2.52v-10.89h-2.61v-2.25h7.74v2.25h-2.61Z"/>
      <path class="cls-1" d="M92.25,75.24h-2.7l-.5,3.06h-2.52l2.97-13.14h2.88l2.97,13.14h-2.59l-.5-3.06ZM90.92,67.14h-.04l-.99,6.03h2.02l-.99-6.03Z"/>
      <path class="cls-1" d="M101.18,65.52c4.85,0,9.78-.12,14.8-.36l.09,2.16c-2.89.24-5.06.88-6.52,1.92-1.45,1.04-2.18,2.33-2.18,3.88,0,1.27.4,2.27,1.21,2.99.81.72,1.89,1.08,3.23,1.08.7,0,1.43-.07,2.2-.22l.27,2.2c-.9.17-1.76.25-2.59.25-2.1,0-3.77-.55-5.02-1.64s-1.87-2.57-1.87-4.43c0-1.18.34-2.27,1.03-3.28.68-1.01,1.66-1.85,2.92-2.52v-.04c-2.63.11-5.15.16-7.56.16v-2.16ZM114.84,72.31l-1.85.88c-.47-.95-.98-1.9-1.53-2.86l1.85-.94c.55,1.02,1.06,1.99,1.53,2.92ZM117.76,71.73l-1.89.9c-.54-1.04-1.06-2.02-1.57-2.92l1.89-.95c.43.78.95,1.77,1.57,2.97Z"/>
      <path class="cls-1" d="M122.58,64.64c-.58,2.2-.86,4.59-.86,7.18s.29,4.99.86,7.18l-2.25.27c-.6-2.29-.9-4.78-.9-7.45s.3-5.16.9-7.45l2.25.27ZM134.75,68.94h-2.93v5.06c.72.56,1.73,1.52,3.02,2.88l-1.51,1.51c-.52-.56-1.06-1.12-1.64-1.67-.38,1.69-1.63,2.54-3.73,2.54-1.33,0-2.36-.3-3.1-.91-.73-.61-1.1-1.46-1.1-2.56,0-1.04.36-1.87,1.09-2.47s1.76-.9,3.1-.9c.55,0,1.07.08,1.57.25v-3.73h-5.17v-2.03h5.17v-2.77h2.29v2.77h2.93v2.03ZM129.53,74.97c-.56-.32-1.12-.49-1.67-.49-1.25,0-1.87.43-1.87,1.3,0,.96.62,1.44,1.87,1.44.59,0,1.01-.13,1.28-.4.26-.27.4-.72.4-1.34v-.5Z"/>
      <path class="cls-1" d="M136.96,75.76l1.76-1.51c1.1,1.21,2.26,2.56,3.46,4.03l-1.87,1.37c-1.04-1.32-2.16-2.62-3.35-3.89Z"/>
      <path class="cls-1" d="M167.98,69.3v1.21h-10.08v-1.21c-.73.47-1.53.92-2.39,1.37l-.94-1.96c1.39-.76,2.62-1.53,3.69-2.31,1.07-.79,2.12-1.69,3.17-2.73h3.02c1.04,1.03,2.1,1.94,3.17,2.73,1.07.79,2.3,1.56,3.69,2.31l-.94,1.96c-.86-.44-1.66-.9-2.39-1.37ZM158.85,79.07v.85h-2.39v-7.79h12.96v7.79h-2.39v-.85h-8.17ZM167.02,77.22v-3.19h-8.17v3.19h8.17ZM166.91,68.58c-1.42-.98-2.74-2.11-3.98-3.38-1.24,1.27-2.56,2.4-3.98,3.38h7.96Z"/>
      <path class="cls-1" d="M177.75,66.64h-1.44v3.04h1.33v2.03h-1.33v3.56c.65-.22,1.12-.38,1.42-.49l.05,1.98c-1.44.58-3.13,1.09-5.06,1.55l-.22-2.02c.18-.04.45-.1.81-.2.36-.1.6-.16.72-.18v-4.21h-1.26v-2.03h1.26v-3.04h-1.44v-2.11h5.15v2.11ZM184.68,72.67v1.49h4.32v1.8h-4.32v1.62h4.57v1.93h-12.06v-1.93h5.13v-1.62h-4.12v-1.8h4.12v-1.49h-4.05v-8.71h10.49v8.71h-4.09ZM180.41,67.52h1.91v-1.69h-1.91v1.69ZM182.32,70.88v-1.76h-1.91v1.76h1.91ZM184.68,67.52h1.91v-1.69h-1.91v1.69ZM184.68,70.88h1.91v-1.76h-1.91v1.76Z"/>
      <path class="cls-1" d="M204.93,79.79c-1.31,0-2.63-.04-3.96-.11l-.11-2.07c1.09.07,2.09.11,2.99.11.19,0,.34-.19.44-.58s.2-1.33.3-2.83.18-3.77.25-6.82h-3.91c-.49,1.04-1,1.97-1.53,2.77l1.62-.97c1.02,1.42,1.95,2.97,2.79,4.66l-1.87.97c-.76-1.5-1.66-2.98-2.7-4.43-.31.44-.58.79-.81,1.04l-.67-.67v7.45h-4.54v1.31h-2.25v-13.82h1.98c.3-.86.55-1.69.74-2.48l2.27.27c-.17.74-.38,1.48-.63,2.21h2.43v2.92c1.04-1.6,1.81-3.4,2.3-5.42l2.25.25c-.19.76-.38,1.39-.56,1.89h5.42c-.02,1.76-.05,3.28-.08,4.55-.03,1.27-.07,2.42-.13,3.46-.05,1.03-.11,1.88-.15,2.54-.05.66-.12,1.24-.22,1.74s-.19.87-.28,1.12-.21.45-.37.6c-.16.15-.31.24-.45.27-.14.03-.34.04-.58.04ZM193.23,71.1h2.34v-3.29h-2.34v3.29ZM193.23,73.03v3.38h2.34v-3.38h-2.34Z"/>
      <path class="cls-1" d="M211,66.06h-2.23v-1.93h8.42v1.93h-1.93v1.26h1.89v12.47h-1.87v-.74h-4.25v.74h-2v-12.47h1.96v-1.26ZM211.03,73.55v.88h4.25v-1.31h-.97c-.41,0-.67-.07-.77-.2-.11-.13-.16-.45-.16-.95v-2.84h-.41c0,1.4-.07,2.42-.2,3.03-.13.62-.43,1.33-.9,2.13l-.83-.74ZM211.03,72.22c.18-.35.3-.74.37-1.18.07-.44.1-1.08.1-1.92h-.47v3.1ZM211.03,76.14v1.08h4.25v-1.08h-4.25ZM212.87,66.06v1.26h.54v-1.26h-.54ZM215.28,71.42v-2.3h-.5v2.02c0,.14.01.23.04.25.03.02.13.04.3.04h.16ZM222.26,77.63c.32-.02.52-.19.6-.49s.14-1.27.19-2.9l2.29.25c-.04.86-.07,1.55-.11,2.06-.04.51-.09.98-.17,1.4s-.16.73-.23.92c-.08.19-.21.36-.39.49-.18.14-.36.23-.54.26-.18.04-.44.06-.77.07-.82.05-1.47.07-1.96.07-.36,0-.91-.02-1.66-.07-.72-.05-1.16-.2-1.31-.46-.16-.26-.23-.94-.23-2.06v-7.49h4.55v-3.51h-4.72v-2.05h7.06v8.64h-2.34v-1.04h-2.34v4.99c0,.43.02.69.06.77s.18.13.42.15c.36.02.61.04.74.04.19,0,.48-.01.86-.04Z"/>
      <path class="cls-1" d="M242.71,68.9c-.06.96-.33,1.53-.8,1.7-.47.17-2.01.26-4.6.26-2.29,0-3.64-.06-4.05-.17-.41-.11-.61-.49-.61-1.12v-.09l-2.43.14-.09-1.26,2.52-.14v-.63h-2.81v3.56c0,2.16-.14,3.88-.43,5.15s-.79,2.47-1.49,3.58l-1.71-2.09c.53-1,.88-2.03,1.05-3.11.17-1.08.26-2.83.26-5.26v-3.55h5.92v-2.65h2.39v.63h6.03v1.53h-6.03v.49h7.16v1.71c-.32.49-.64.91-.94,1.26l.65.05ZM243.58,78.84l-1.8.86c-.42-.82-.88-1.57-1.37-2.25-.02.42-.05.75-.09.99s-.11.46-.23.67c-.12.21-.25.36-.4.44-.14.08-.39.16-.73.23-.34.07-.7.1-1.06.12-.37.01-.88.02-1.56.02-.82,0-1.45-.01-1.89-.04-.44-.02-.83-.06-1.15-.1-.32-.04-.55-.13-.67-.27-.12-.14-.2-.28-.24-.43-.04-.15-.06-.38-.06-.69v-1.22c-.41.96-.98,1.83-1.73,2.61l-1.64-1.08c.74-.79,1.33-1.68,1.76-2.66l1.6.74v-.5h2.2v1.31c0,.29.08.46.22.5.15.05.66.07,1.54.07,1.04,0,1.66-.05,1.84-.14.18-.1.29-.42.32-.97l1.8.16c-.14-.2-.33-.45-.56-.74l1.37-.65h-3.85c.41.31.8.62,1.19.92l-1.26,1.31c-.73-.62-1.54-1.2-2.41-1.73l.49-.5h-4.68v-4.59h11.93v4.59h-.76c.73,1.06,1.36,2.06,1.87,3.02ZM235.39,72.43h-2.47v.56h2.47v-.56ZM235.39,74.02h-2.47v.58h2.47v-.58ZM234.99,68.08l4.18-.25.09,1.26-4.27.25v.11c0,.11.09.17.28.19.19.02.84.03,1.97.03,1.22,0,2.02-.02,2.38-.05.36-.04.58-.15.65-.34l-.86-.59c.38-.35.74-.71,1.08-1.08h-5.49v.49ZM237.49,72.99h2.52v-.56h-2.52v.56ZM237.49,74.02v.58h2.52v-.58h-2.52Z"/>
      <path class="cls-1" d="M258.98,76.81l.2,2.03c-1.58.24-3.14.36-4.68.36-2.26,0-3.88-.27-4.88-.8-1-.53-1.49-1.37-1.49-2.49,0-.9.42-1.73,1.25-2.49.83-.76,2.09-1.41,3.77-1.95-.28-.59-.79-.88-1.53-.88-1.27,0-2.78,1.22-4.52,3.65l-1.89-1.13c1.4-1.96,2.5-3.8,3.29-5.54h-3.08v-1.91h3.87c.24-.64.47-1.3.7-2l2.32.43c-.14.43-.34.95-.58,1.57h7.49v1.91h-8.26c-.14.34-.37.84-.68,1.51l.02.04c.66-.26,1.28-.4,1.85-.4,1.61,0,2.69.72,3.26,2.16,1.28-.26,2.56-.47,3.82-.61l.18,1.98c-1.06.12-2.23.31-3.53.58.11.79.16,1.72.16,2.79h-2.39c0-.92-.02-1.65-.07-2.18-.98.32-1.74.68-2.26,1.07-.52.39-.78.78-.78,1.16,0,.34.09.61.27.82.18.21.57.39,1.17.53s1.44.22,2.52.22c1.22,0,2.72-.14,4.48-.41Z"/>
      <path class="cls-1" d="M268.63,77.26c-2.03.34-4.02.61-5.98.81l-.18-1.98c.23-.02.63-.07,1.21-.14v-9.83h-.97v-1.98h9.31v.88h7.02v2.03c-.44,3.1-1.31,5.73-2.59,7.9.85,1.09,1.91,2.02,3.17,2.79l-1.1,2.02c-1.31-.86-2.43-1.84-3.37-2.93-.9,1.12-1.97,2.09-3.22,2.93l-.99-1.53v1.78h-2.3v-2.75ZM268.63,66.11h-2.74v1.91h2.74v-1.91ZM265.9,71.77h2.74v-1.94h-2.74v1.94ZM268.63,75.24v-1.67h-2.74v2.09c.6-.08,1.51-.22,2.74-.41ZM271.35,67.99l2.16-.5c.36,2.05.88,3.79,1.55,5.2.79-1.63,1.34-3.51,1.64-5.63h-5.09v-.94h-.67v11.47c1.03-.68,1.97-1.6,2.83-2.74-1.07-1.8-1.87-4.09-2.41-6.86Z"/>
      <path class="cls-1" d="M283.12,64.57h2.34v3.53h.02c1.31-2.11,3.02-3.17,5.13-3.17,1.49,0,2.66.52,3.52,1.56.86,1.04,1.29,2.5,1.29,4.38,0,2.93-.83,5.07-2.5,6.43-1.67,1.36-4.31,2.03-7.94,2.03l-.13-2.16c2.95,0,5.03-.48,6.24-1.44,1.21-.96,1.81-2.58,1.81-4.86,0-1.21-.22-2.13-.65-2.75-.43-.62-1.06-.93-1.87-.93-1.24,0-2.36.63-3.38,1.89-1.01,1.26-1.55,2.8-1.61,4.61l-2.27-.02v-9.11Z"/>
      <path class="cls-1" d="M301.54,64.26h7.25v1.57c0,2.76.56,5.2,1.68,7.31,1.12,2.11,2.71,3.76,4.76,4.93l-1.3,1.85c-1.39-.72-2.65-1.82-3.78-3.29-1.13-1.48-2-3.16-2.63-5.04-.77,1.79-1.82,3.42-3.16,4.9s-2.82,2.62-4.44,3.44l-1.3-1.85c2.33-1.27,4.19-2.95,5.6-5.02,1.4-2.08,2.11-4.16,2.11-6.26v-.41h-4.81v-2.11Z"/>
      <path class="cls-1" d="M316.96,66.65h3.89v-2.7h2.29v4.68c1.2-1.07,2.13-1.78,2.8-2.15s1.31-.55,1.93-.55c.89,0,1.52.28,1.9.85s.57,1.58.57,3.06c0,.66-.08,1.44-.23,2.34-.17,1.01-.25,1.79-.25,2.34,0,1.16.22,1.75.67,1.75.38,0,1.05-.46,2-1.37l1.17,1.64c-.6.65-1.25,1.16-1.95,1.55-.7.38-1.33.58-1.88.58-.84,0-1.45-.29-1.83-.87-.38-.58-.57-1.59-.57-3.03,0-.62.08-1.4.23-2.34.17-.96.25-1.74.25-2.34,0-.67-.06-1.13-.17-1.37-.11-.24-.28-.36-.5-.36-.44,0-1.82,1.09-4.14,3.26v7.9h-2.29v-5.71c-1.08,1.06-2,1.97-2.77,2.74l-1.53-1.51c2.34-2.34,3.77-3.76,4.3-4.27v-2.05h-3.89v-2.05Z"/>
      <path class="cls-1" d="M335.74,67.86v-2.03h2.86c.17-.96.29-1.69.38-2.18l2.29.2c-.14.89-.26,1.55-.34,1.98h6.28v2.03h-6.68c-.8,4.01-1.82,7.84-3.06,11.48l-2.27-.52c1.22-3.59,2.22-7.24,2.99-10.96h-2.45ZM350.06,76.63l.27,2.03c-1.28.24-2.55.36-3.8.36-1.66,0-2.98-.3-3.97-.91s-1.48-1.38-1.48-2.33.6-1.85,1.8-2.79l1.64,1.04c-.47.4-.78.7-.94.91-.16.21-.23.41-.23.6,0,.42.29.77.85,1.03.57.27,1.35.41,2.33.41,1.07,0,2.24-.12,3.53-.36ZM349.92,71.32c-2.56,0-4.98.14-7.27.41l-.14-2.02c2.35-.28,4.82-.41,7.42-.41v2.02Z"/>
      <path class="cls-1" d="M353.07,67.27h2.95v-3.06h2.34v3.06h5.04v-3.06h2.45v3.06h2.95v2.16h-2.95v1.01c0,2.88-.67,4.98-2,6.31-1.33,1.33-3.6,2.13-6.8,2.4l-.45-2.16c2.66-.26,4.46-.85,5.4-1.75.94-.91,1.4-2.5,1.4-4.8v-1.01h-5.04v3.65h-2.34v-3.65h-2.95v-2.16Z"/>
      <path class="cls-1" d="M370.73,76.72c1.03-2.11,1.97-4.21,2.81-6.3l2.21.7c-.92,2.34-1.88,4.51-2.88,6.5l-2.14-.9ZM371.32,66.78h6.39v-2.75h2.48v2.75h2.38c-.14-.32-.22-.68-.22-1.08,0-.74.26-1.38.79-1.91.53-.53,1.16-.79,1.91-.79s1.38.26,1.91.79c.53.53.79,1.16.79,1.91,0,.53-.14,1.01-.43,1.46-.29.44-.67.77-1.13.99v.79h-5.99v7.69c0,1.2-.15,1.95-.44,2.25-.29.3-1.03.45-2.21.45-.73,0-1.69-.07-2.88-.22l.18-2.14c1.02.12,1.74.18,2.16.18.35,0,.55-.04.61-.12.06-.08.09-.32.09-.73v-7.36h-6.39v-2.16ZM384.59,77.67c-.79-2-1.73-4.18-2.83-6.53l2.14-.85c1.02,2.12,1.98,4.31,2.88,6.55l-2.2.83ZM385.88,66.53c.23-.23.34-.5.34-.83s-.11-.6-.34-.83c-.23-.23-.5-.34-.83-.34s-.6.11-.83.34-.34.5-.34.83.11.6.34.83c.23.23.5.34.83.34s.6-.11.83-.34Z"/>
      <path class="cls-1" d="M389.5,73.03v-2.41h14.87v2.41h-14.87Z"/>
      <path class="cls-1" d="M410.02,64.39h2.52v5.04c3.12.76,6.38,1.76,9.79,3.01l-.76,2.27c-3-1.12-6.01-2.05-9.04-2.81v7.36h-2.52v-14.87Z"/>
      <path class="cls-1" d="M438.98,76.81l.2,2.03c-1.58.24-3.14.36-4.68.36-2.26,0-3.88-.27-4.88-.8-1-.53-1.49-1.37-1.49-2.49,0-.9.42-1.73,1.25-2.49.83-.76,2.09-1.41,3.77-1.95-.28-.59-.79-.88-1.53-.88-1.27,0-2.78,1.22-4.52,3.65l-1.89-1.13c1.4-1.96,2.5-3.8,3.29-5.54h-3.08v-1.91h3.87c.24-.64.47-1.3.7-2l2.32.43c-.14.43-.34.95-.58,1.57h7.49v1.91h-8.26c-.14.34-.37.84-.68,1.51l.02.04c.66-.26,1.28-.4,1.85-.4,1.61,0,2.69.72,3.26,2.16,1.28-.26,2.56-.47,3.82-.61l.18,1.98c-1.06.12-2.23.31-3.53.58.11.79.16,1.72.16,2.79h-2.39c0-.92-.02-1.65-.07-2.18-.98.32-1.74.68-2.26,1.07-.52.39-.78.78-.78,1.16,0,.34.09.61.27.82.18.21.57.39,1.17.53s1.44.22,2.52.22c1.22,0,2.72-.14,4.48-.41Z"/>
      <path class="cls-1" d="M446.99,79.07c1.06-1.62,1.76-3.4,2.11-5.33l2.16.34c-.12.82-.28,1.55-.49,2.2.48.4,1,.69,1.55.88v-3.76h-3.76l.07.49c-.54.19-1.09.37-1.64.54v2.48c0,.73-.02,1.27-.05,1.62-.04.35-.14.63-.31.85-.17.22-.39.36-.66.41-.26.05-.67.07-1.22.07-.24,0-.82-.03-1.75-.09l-.11-1.93c.8.06,1.31.09,1.51.09.13,0,.21-.04.23-.11.02-.07.04-.32.04-.74v-2.03c-.97.23-1.57.36-1.78.4l-.14-2.11c.58-.1,1.22-.23,1.93-.41v-3.91h-1.89v-1.98h1.89v-3.38h2.32v3.38h1.69v-3.01h9.9v6.7h-9.9v-1.71h-1.69v3.29c.78-.25,1.21-.39,1.28-.41v-.41h10.98v1.91h-4.54v1.12h4v1.82h-4v1.3c.91.08,2.1.13,3.56.13h1.03l-.13,1.98h-1.08c-2.14,0-3.81-.12-5.02-.37s-2.21-.67-2.99-1.27c-.28.61-.63,1.25-1.06,1.93l-2.03-.95ZM451.03,66.73h5.22v-.88h-5.22v.88ZM451.03,68.18v.92h5.22v-.92h-5.22Z"/>
      <path class="cls-1" d="M464.29,68.6v11.38h-2.32v-7.63c-.41.67-.79,1.22-1.15,1.64l-.76-2.7c1.57-2.06,2.66-4.63,3.26-7.69l2.23.4c-.26,1.68-.68,3.22-1.26,4.61ZM464.54,78.35c1.74-1.14,3.2-2.43,4.39-3.87l1.62,1.51c-1.32,1.63-2.86,3-4.63,4.1l-1.39-1.75ZM467.24,66.37v-2.59h2.34v2.59h3.26v-2.59h2.39v2.59h1.75v1.98h-1.75v3.83h2.23v2.03h-12.56v-2.03h2.34v-3.83h-1.75v-1.98h1.75ZM469.58,72.18h3.26v-3.83h-3.26v3.83ZM471.64,76.1l1.58-1.58c1.55,1.2,2.95,2.55,4.21,4.05l-1.6,1.62c-1.14-1.4-2.54-2.77-4.19-4.09Z"/>
      <path class="cls-1" d="M481.48,64.31l2.45.07c-.16,2.81-.23,5.47-.23,7.97,0,1.3.11,2.28.32,2.96.21.68.51,1.13.91,1.37.4.23.97.35,1.71.35,2.28,0,4.1-1.73,5.47-5.18l2.14.83c-1.64,4.43-4.18,6.64-7.61,6.64-2.04,0-3.45-.5-4.23-1.48-.78-.99-1.17-2.82-1.17-5.48s.08-5.25.25-8.05Z"/>
      <path class="cls-1" d="M497.92,65.65h7.15v-1.75h2.27v1.75h4.63v2.03h-4.63v1.57h3.96v2h-3.96v2.92c1.3.73,2.71,1.79,4.25,3.19l-1.42,1.58c-.97-.91-1.94-1.71-2.92-2.39-.18,1.01-.61,1.73-1.29,2.18s-1.68.67-3,.67-2.27-.3-3-.89c-.73-.59-1.09-1.42-1.09-2.48,0-.95.33-1.71,1-2.29s1.7-.87,3.09-.87c.72,0,1.42.1,2.11.31v-1.91h-6.48v-2h6.48v-1.57h-7.15v-2.03ZM505.06,75.28c-.71-.29-1.33-.43-1.87-.43-.71,0-1.21.1-1.52.29-.31.19-.46.49-.46.88,0,.42.15.75.46.98.31.23.73.35,1.29.35.82,0,1.37-.14,1.67-.43.29-.29.44-.83.44-1.64Z"/>
      <path class="cls-1" d="M515.14,65.57h8.51v-1.98h2.29v1.98h4.79v1.93h-4.79v3.58c.31.68.47,1.49.47,2.41,0,1.82-.52,3.2-1.57,4.14s-2.78,1.54-5.2,1.8l-.36-2.09c1.72-.19,2.91-.48,3.57-.87.67-.39,1.08-.97,1.25-1.75,0-.01,0-.03,0-.04s0-.03,0-.04l-.02-.02c-.62.5-1.42.76-2.38.76-1.09,0-1.98-.33-2.67-1-.69-.67-1.04-1.51-1.04-2.55s.35-1.9,1.05-2.56c.7-.66,1.61-.99,2.73-.99.62,0,1.23.14,1.82.43h.04v-1.21h-8.51v-1.93ZM520.79,70.66c-.34.31-.5.69-.5,1.16s.17.85.5,1.16c.33.31.77.46,1.3.46s.96-.15,1.3-.46c.34-.31.5-.69.5-1.16s-.17-.85-.5-1.16c-.34-.31-.77-.46-1.3-.46s-.96.15-1.3.46Z"/>
      <path class="cls-1" d="M533.73,79.03c-.58-.58-.87-1.27-.87-2.08s.29-1.49.86-2.07c.58-.58,1.27-.86,2.09-.86s1.49.29,2.07.86c.58.58.86,1.27.86,2.07s-.29,1.51-.86,2.09c-.58.58-1.27.86-2.07.86s-1.5-.29-2.08-.87ZM534.89,76.04c-.25.25-.38.55-.38.91s.13.67.38.92.56.38.92.38.66-.13.91-.38c.25-.25.37-.56.37-.92s-.12-.66-.37-.91c-.25-.25-.55-.37-.91-.37s-.67.12-.92.37Z"/>
    </g>
  </g>
</svg>